<svg width="64" height="64" viewBox="0 0 64 64" fill="none" xmlns="http://www.w3.org/2000/svg">
<rect width="64" height="64" fill="white"/>
<path d="M28.3916 24.4577C29.0195 24.3928 29.6454 24.3193 30.2728 24.2769C30.1539 24.2776 30.0374 24.2755 29.9155 24.2799C29.3983 24.2985 28.8899 24.3598 28.3916 24.4577Z" fill="black"/>
<path d="M51.2671 27.8947C50.9695 27.0351 50.582 26.3739 49.7343 25.9772C49.6313 25.9291 49.527 25.8876 49.4224 25.8494C49.2666 25.7894 49.1047 25.7419 48.9375 25.708C47.8822 25.476 46.7735 25.6924 45.7445 26.1081C45.7211 26.0996 45.7013 26.0882 45.6894 26.0707C45.6838 26.0622 45.68 26.0496 45.6764 26.0366C45.6893 25.9541 45.6966 25.8703 45.7072 25.7949C45.7433 25.5373 45.7835 25.2831 45.8093 25.0243C45.8532 24.5851 45.8274 24.161 45.7791 23.7284C45.7791 23.722 45.7803 23.7154 45.7803 23.709C45.7803 23.5191 45.7426 23.3319 45.6715 23.1478C45.6723 23.1313 45.6729 23.1148 45.6738 23.0982L45.6518 23.0971C45.5992 22.9724 45.5302 22.8493 45.4465 22.7277C45.4003 22.6496 45.3498 22.5726 45.2909 22.4972C45.1331 22.2958 44.9386 22.1334 44.7281 21.9894C44.6925 21.9614 44.6554 21.9336 44.6181 21.9059C44.4722 21.7676 44.3009 21.663 44.1198 21.5728C43.9575 21.4748 43.7843 21.3788 43.6009 21.285C43.5891 21.2707 43.5736 21.2581 43.5533 21.2481C43.473 21.2088 43.3927 21.1759 43.3122 21.143C42.6072 20.8091 41.7693 20.5044 40.8212 20.2363C40.8072 20.2237 40.7904 20.2135 40.7671 20.2111C40.7465 20.2088 40.7262 20.2066 40.7058 20.2041C38.0062 19.4559 34.4407 19 30.5368 19C28.3188 19 26.2099 19.1472 24.3071 19.4115C24.2984 19.4068 24.2884 19.4035 24.2767 19.4027C24.044 19.3895 23.8018 19.3388 23.5723 19.3794C23.2892 19.4294 23.0173 19.5377 22.7406 19.6116C22.6786 19.6281 22.616 19.643 22.5538 19.6588C22.4849 19.6683 22.4153 19.6764 22.3475 19.6885C22.0307 19.7441 21.7188 19.836 21.4097 19.9299C21.3356 19.9475 21.2614 19.9648 21.1877 19.9836C21.1099 20.0034 21.0337 20.0254 20.9585 20.0489C19.7379 20.3544 18.6727 20.7166 17.8052 21.1227C17.3539 21.2981 16.92 21.5395 16.5394 21.8454C15.739 22.4167 15.294 23.0463 15.2933 23.7073C15.2448 25.9242 15.5884 28.1891 16.2962 30.4334C16.3483 30.6891 16.4366 30.9252 16.5213 31.1792C16.6336 31.5167 16.7265 31.8722 16.8763 32.194C16.9477 32.3474 17.0299 32.4954 17.1138 32.6422C17.2212 32.8943 17.3331 33.1457 17.4498 33.3967C17.4796 33.4705 17.5092 33.5448 17.5395 33.6177C17.6149 33.7984 17.6882 33.9795 17.7685 34.1567C17.7351 34.1599 17.702 34.1708 17.6729 34.1857C17.2203 34.4175 16.6743 34.5044 16.1994 34.6961C15.807 34.8546 15.4399 35.1723 15.0897 35.4404C14.6472 35.6448 14.2204 35.8668 13.8284 36.1877C13.2958 36.6239 12.9074 37.3432 13.0193 38.0468C13.0738 38.389 13.2796 38.7466 13.566 38.9765C13.6757 39.1376 13.7941 39.2916 13.9205 39.439C14.1105 39.7166 14.3466 40.0966 14.6182 40.2769C14.8455 40.5194 15.0935 40.7433 15.3498 40.9539C15.9037 41.4088 16.4922 41.83 17.0889 42.2259C17.7351 42.6547 18.3904 43.1164 19.0994 43.434C19.8061 43.7507 20.5449 44.0036 21.2603 44.3006C21.9481 44.5862 22.6332 44.7302 23.3699 44.8246C24.2324 44.9353 25.0833 45.1124 25.9484 45.2124C26.7802 45.3085 27.613 45.3999 28.4453 45.4939C30.0315 45.6732 31.6351 45.7311 33.228 45.6125C34.7909 45.4961 36.3954 45.3957 37.9328 45.0795C38.7097 44.9197 39.4477 44.631 40.2192 44.452C40.5473 44.3759 40.88 44.3313 41.2096 44.2651C41.5729 44.1922 41.8143 44.0004 42.1425 43.8487C42.7745 43.5564 43.485 43.4129 44.1152 43.1087C44.3889 42.9768 44.6258 42.7818 44.8985 42.6431C45.2256 42.4767 45.5223 42.271 45.8074 42.04C46.9495 41.1144 48.3128 40.044 48.9666 38.6873C48.9715 38.6774 48.9752 38.6669 48.9799 38.6569C49.1886 38.4089 49.2939 38.0968 49.1997 37.6881C49.1991 37.6859 49.1982 37.6842 49.1976 37.6821C49.21 37.4302 49.2257 37.1463 49.184 36.9233C49.0855 36.3938 48.5625 36.1809 48.1338 35.9253C48.3069 35.7702 48.4764 35.6105 48.6409 35.446C48.8981 35.1887 49.1565 34.9324 49.4055 34.6687C49.6218 34.4923 49.834 34.312 50.027 34.1109C50.7652 33.3423 51.2829 32.2006 51.4323 31.1048C51.4636 30.9763 51.4921 30.8476 51.5151 30.718C51.6823 29.7716 51.5805 28.8001 51.2671 27.8947ZM51.1653 30.8615C50.9799 31.7028 50.6246 32.5125 50.1604 33.237C49.8687 33.6924 49.5144 34.0987 49.1413 34.488C48.9796 34.614 48.8173 34.7377 48.6609 34.8627C48.0772 35.3295 47.5948 35.9226 46.9825 36.3537C46.9261 36.3934 46.9031 36.4479 46.9027 36.5022C45.9333 37.1988 44.8608 37.7507 43.7185 38.0976C42.911 38.3429 42.0869 38.5193 41.2527 38.6375C41.1736 38.6813 41.0778 38.7076 40.9644 38.7076H40.6994C40.6715 38.7107 40.6434 38.7144 40.6154 38.7174C40.5532 38.724 40.4908 38.7298 40.4284 38.7359L40.4148 38.7223C40.409 38.728 40.403 38.7332 40.3971 38.7389C40.3815 38.7404 40.3659 38.7419 40.3504 38.7436C40.2829 38.7859 40.2141 38.8261 40.1467 38.8686C40.1176 38.887 40.0892 38.9067 40.0604 38.9257C40.0587 38.9272 40.0568 38.9287 40.0551 38.9302C40.1246 38.8876 40.0436 38.9383 40.0185 38.9622C40.0163 38.9643 40.0136 38.9658 40.0114 38.9678C39.9912 38.9957 39.968 39.0205 39.9429 39.0427C39.9311 39.065 39.9188 39.0867 39.9056 39.1062C39.9137 39.1055 39.9218 39.1047 39.9298 39.1038C39.9252 39.1094 39.9213 39.1158 39.9169 39.1214C39.8983 39.1354 39.88 39.1498 39.8612 39.1636C39.8101 39.2215 39.7517 39.2626 39.6893 39.2891C39.5845 39.3645 39.4797 39.4397 39.3783 39.5179C39.1126 39.723 38.9023 39.9815 38.6243 40.1709C38.5789 40.2007 38.5329 40.2291 38.4873 40.2583C37.8722 40.6283 37.199 40.8394 36.5209 41.0654C36.176 41.1802 35.8274 41.3007 35.4748 41.4073C35.027 41.4946 34.586 41.6179 34.1365 41.6989C33.7751 41.7373 33.4142 41.7418 33.0531 41.7724C32.6975 41.7613 32.3405 41.7341 31.9853 41.7489C31.3671 41.7749 30.7518 41.7376 30.1327 41.7771C30.0238 41.7841 29.9141 41.7893 29.8044 41.7948C29.6146 41.7664 29.425 41.7346 29.2319 41.72C28.5734 41.6702 27.927 41.5226 27.2764 41.4094C27.1573 41.3647 27.0382 41.3207 26.9178 41.2849C26.8062 41.2519 26.6952 41.222 26.5844 41.193C26.5599 41.1646 26.5254 41.1462 26.4823 41.1518C26.476 41.1526 26.4698 41.1535 26.4636 41.1543C26.4589 41.155 26.4546 41.1573 26.4498 41.1584C26.245 41.1071 26.0398 41.0588 25.8315 41.0078C25.4947 40.9255 25.1898 40.7939 24.8753 40.6655C24.7501 40.5954 24.6256 40.5247 24.5044 40.4481C23.956 40.1017 23.4232 39.7309 22.8753 39.3835C22.2934 39.0145 21.6583 38.6612 21.19 38.1474C20.7103 37.6214 20.3183 36.985 19.9126 36.4013C19.6693 36.0512 19.4111 35.7119 19.1569 35.3697C18.7581 34.5596 18.4147 33.7174 17.962 32.9353C17.59 32.2929 17.3346 31.5958 17.0546 30.9113C16.7953 30.2774 16.5149 29.6555 16.3332 28.9926C16.264 28.7405 16.206 28.4872 16.1521 28.2336C15.9864 27.329 15.8372 26.4241 15.7216 25.5131C15.7256 25.501 15.7299 25.4892 15.7307 25.4749C15.7401 25.2677 15.7307 25.0542 15.7429 24.8453C15.8353 24.96 15.9412 25.073 16.0603 25.1843C16.2182 25.4146 16.4044 25.6157 16.6341 25.7855C16.8942 25.9776 17.1792 26.0989 17.4764 26.2218C17.5354 26.2463 17.5942 26.2715 17.653 26.2965C17.6737 26.3166 17.7006 26.3288 17.7298 26.329C18.0291 26.4568 18.3284 26.5856 18.6399 26.6796C18.7161 26.7025 18.7933 26.7202 18.8708 26.7362C19.5622 26.99 20.3383 27.221 21.186 27.4252C21.3645 27.4899 21.5418 27.5534 21.7318 27.5869C21.8886 27.6145 22.0452 27.6335 22.2016 27.6495C24.1885 28.052 26.4958 28.3152 28.9782 28.3934C29.4786 28.4325 29.9757 28.4566 30.4825 28.4609C30.6711 28.4626 30.8556 28.4352 31.0417 28.4135C31.4538 28.4094 31.8639 28.4021 32.2691 28.3882C32.2759 28.3883 32.2828 28.3882 32.2894 28.3885C32.6077 28.4023 32.9291 28.431 33.2479 28.4113C33.4119 28.4011 33.5725 28.3648 33.7336 28.3302C34.0615 28.3231 34.3887 28.3015 34.7207 28.2504C34.7469 28.2464 34.7731 28.2447 34.7993 28.2411C34.9169 28.2389 35.0345 28.2359 35.1518 28.2293C35.2969 28.2212 35.4407 28.224 35.5824 28.1887C35.6114 28.1815 35.6406 28.172 35.6698 28.1622C35.9222 28.1456 36.1747 28.128 36.4265 28.0917C36.6547 28.0588 36.8788 28.0137 37.1017 27.9648C38.5433 27.754 39.8719 27.4724 41.0445 27.1284C41.3713 27.0522 41.6951 26.9597 42.0139 26.8313C42.074 26.8071 42.1317 26.78 42.1899 26.7535C42.3106 26.7095 42.4329 26.6659 42.5488 26.6204L42.6406 26.5845L42.6014 26.4939C42.5414 26.3555 42.4596 26.2269 42.3509 26.1011L42.3189 26.0665L42.2896 26.059L42.2853 26.0273L42.2625 26.0045C42.2095 25.9515 42.1541 25.9011 42.0953 25.8539L41.9634 25.7665L41.9372 25.9282C41.925 25.8603 41.9046 25.7922 41.8735 25.7146L41.862 25.6857L41.8356 25.6693C41.6091 25.527 41.3677 25.4097 41.134 25.2961L41.0223 25.2418C40.9077 25.1861 40.792 25.1299 40.6761 25.0739C40.7646 25.1779 40.8481 25.2892 40.9267 25.4074C40.9282 25.4082 40.9297 25.4089 40.9314 25.4097C40.9495 25.4358 40.9672 25.4619 40.9844 25.4892C40.9842 25.4892 40.984 25.4892 40.9838 25.4892C40.9874 25.4948 40.9915 25.4995 40.9951 25.5052C41.006 25.523 41.0134 25.5407 41.0189 25.558C41.0204 25.5629 41.0213 25.5678 41.0224 25.5727C41.0255 25.5856 41.0273 25.5986 41.0277 25.6112C41.0279 25.6155 41.0279 25.6197 41.0279 25.624C41.0264 25.6578 41.016 25.6896 40.9987 25.7174C40.9216 25.8396 40.7166 25.8878 40.6167 25.7261C40.5728 25.655 40.5232 25.5915 40.4752 25.5259C40.4742 25.5259 40.4733 25.5259 40.4723 25.526C40.471 25.5243 40.4697 25.5227 40.4684 25.5208C40.4693 25.5206 40.4703 25.5204 40.4712 25.5202C40.4614 25.5071 40.4503 25.4956 40.4403 25.4826C40.4039 25.4347 40.3666 25.3882 40.3282 25.3431C40.3293 25.3427 40.3304 25.3424 40.3316 25.342C40.3152 25.3228 40.2973 25.3059 40.2805 25.2873C40.2771 25.2835 40.2743 25.2794 40.2711 25.2758C40.2707 25.2758 40.2703 25.2758 40.2699 25.276C40.2646 25.2704 40.2594 25.2647 40.2541 25.2591C40.2396 25.2433 40.226 25.2258 40.2113 25.2102C40.2106 25.2102 40.2098 25.2104 40.2089 25.2104C40.1585 25.1579 40.1067 25.1077 40.0536 25.0592C40.0547 25.0594 40.0556 25.0594 40.0568 25.0596C40.0474 25.0512 40.037 25.044 40.0276 25.0357C39.9761 24.9899 39.9235 24.9459 39.8696 24.9036C39.874 24.9056 39.8783 24.9073 39.8826 24.9094C39.858 24.89 39.8314 24.8737 39.8061 24.8549C39.805 24.8539 39.8039 24.8532 39.8027 24.8524C39.7931 24.8453 39.7839 24.8378 39.7743 24.8306C39.7413 24.8066 39.7078 24.7836 39.6738 24.7609C39.6393 24.7378 39.6047 24.715 39.5694 24.6932C39.5494 24.6808 39.5306 24.6669 39.5104 24.6549C39.5095 24.6549 39.5084 24.655 39.5074 24.6552C39.501 24.6513 39.4952 24.6468 39.4888 24.643C39.4869 24.6428 39.4852 24.6426 39.4833 24.6424C39.1363 24.439 38.7551 24.2864 38.3541 24.17C38.3535 24.1698 38.3529 24.1696 38.3525 24.1694C38.3518 24.1692 38.3512 24.1691 38.3505 24.1689C38.3503 24.1689 38.3499 24.1687 38.3497 24.1687C38.3277 24.1623 38.306 24.1559 38.2838 24.1497C38.2843 24.1501 38.2851 24.1506 38.2855 24.151C38.1854 24.1232 38.0847 24.0971 37.983 24.0732C37.9752 24.0715 37.9677 24.0696 37.9602 24.0679C37.954 24.0664 37.9479 24.0651 37.9419 24.0636C37.8371 24.0395 37.7318 24.0172 37.6255 23.9965C37.6162 23.9946 37.6068 23.9927 37.5976 23.991C37.5523 23.9824 37.5075 23.9726 37.4621 23.9647C37.4666 23.9662 37.4715 23.9677 37.476 23.9692C37.4658 23.9673 37.4553 23.9658 37.4451 23.964C37.3524 23.9474 37.2597 23.9312 37.1664 23.9168C37.1264 23.9106 37.0865 23.9047 37.0463 23.8989C37.0199 23.895 36.9936 23.8908 36.9672 23.8871C36.9783 23.888 36.9889 23.8888 37 23.8897C36.9048 23.876 36.81 23.8645 36.715 23.8521C36.715 23.8521 36.7146 23.8521 36.7145 23.8521C36.5469 23.8305 36.3805 23.81 36.215 23.7912C36.1749 23.7865 36.1349 23.7818 36.095 23.7773C35.9751 23.7637 35.8573 23.7502 35.7401 23.7369C35.6627 23.728 35.5862 23.7192 35.5102 23.7102C35.3768 23.6944 35.2447 23.6784 35.1165 23.6609C35.0877 23.657 35.0653 23.6474 35.0447 23.6361C35.0385 23.6325 35.0319 23.6293 35.0266 23.6252C35.0119 23.6145 35.0002 23.6017 34.9906 23.5876C34.9842 23.578 34.9795 23.5675 34.9754 23.5567C34.9695 23.5421 34.9629 23.5276 34.961 23.5114C34.9608 23.5105 34.9607 23.5096 34.9607 23.5086C34.959 23.4917 34.9618 23.4738 34.964 23.4564C34.9652 23.4481 34.9669 23.4398 34.9686 23.4315C34.9714 23.4197 34.9742 23.4078 34.9787 23.3964C34.9799 23.3934 34.9814 23.3907 34.9825 23.3879C35.0049 23.3373 35.0436 23.2926 35.096 23.2657C34.9426 23.2495 34.7895 23.2349 34.6376 23.2257L34.612 23.1719L34.5521 23.1713C34.207 23.165 33.91 23.2033 33.6333 23.2697C34.3382 23.077 35.1222 23.1766 35.8803 23.3204C36.2066 23.3593 36.5399 23.3984 36.8743 23.4449C36.948 23.455 37.0213 23.4678 37.0948 23.4787C37.1997 23.4945 37.3049 23.5094 37.4097 23.5272C37.4155 23.5282 37.4212 23.5291 37.427 23.53C37.5955 23.559 37.7629 23.5915 37.9291 23.6274C38.4439 23.7395 38.9422 23.8912 39.3994 24.1112C39.44 24.1303 39.4801 24.1503 39.52 24.1704C39.6623 24.2439 39.8009 24.324 39.9335 24.4129C39.9576 24.4212 39.9823 24.4285 40.0063 24.4368L40.0735 24.2584C39.7047 24.11 39.3097 23.9683 38.8301 23.8126L38.7106 23.7739C38.5105 23.7088 38.3056 23.6421 38.0974 23.5761C38.522 23.7004 38.9305 23.8318 39.3286 23.9717C40.1001 24.2431 40.9109 24.5479 41.5946 25.0235C41.5997 25.0271 41.605 25.031 41.6101 25.0346C41.5812 25.0154 41.5535 24.9964 41.523 24.9771L41.4133 25.1329C41.4195 25.1378 41.4244 25.1427 41.4305 25.1476C41.1014 24.8804 40.6757 24.7002 40.2893 24.5509C40.1793 24.5082 40.0702 24.4699 39.9622 24.4332C40.2098 24.6022 40.4373 24.8019 40.6418 25.0354C40.9559 25.1852 41.2384 25.3281 41.5064 25.4725L41.859 25.662L41.8684 25.6819L41.8909 25.6967C41.9676 25.7473 42.0409 25.8013 42.1087 25.8565L42.2981 26.0111L42.2977 26.0314L42.3234 26.0596C42.4487 26.1966 42.5431 26.3397 42.6119 26.4965L42.6494 26.582L42.7359 26.5467C43.3164 26.3089 43.8145 26.0568 44.2327 25.7934C44.2754 25.7821 44.3148 25.7582 44.3423 25.7242C44.3663 25.7086 44.3879 25.6926 44.4111 25.6768C44.5773 25.5992 44.739 25.5131 44.8889 25.4057C45.0295 25.305 45.1644 25.1893 45.2852 25.0607C45.3023 25.0453 45.3191 25.0295 45.3357 25.0136C45.5032 25.1373 45.3044 25.7449 45.3551 26.1378C45.351 26.1474 45.3491 26.1589 45.3446 26.1681C45.3374 26.1822 45.3357 26.1955 45.3331 26.2089C45.3336 26.2177 45.3351 26.2265 45.3351 26.2354V26.2739C45.3361 26.2767 45.338 26.279 45.3391 26.2816C45.3378 26.2822 45.3365 26.2827 45.3351 26.2833V26.3698C45.3847 26.3989 45.4286 26.4362 45.4671 26.48C45.4923 26.4689 45.5179 26.4585 45.5432 26.4478C45.7426 26.5364 46.0132 26.4476 46.2122 26.3989C46.6044 26.303 46.9926 26.2143 47.3901 26.1402C48.2201 25.9851 49.0777 26.0006 49.8092 26.4837C50.171 26.7227 50.308 27.1378 50.5042 27.5047C50.6857 27.8443 50.8532 28.1966 50.9821 28.5604C51.1084 28.9161 51.1248 29.2922 51.1476 29.6658C51.1646 29.9433 51.2171 30.2106 51.2316 30.4864C51.2147 30.612 51.1928 30.737 51.1653 30.8615ZM41.6142 25.3162C41.5839 25.2839 41.5513 25.2534 41.5183 25.2234C41.5526 25.2538 41.584 25.285 41.6142 25.3162ZM41.6854 25.3924L41.6462 25.3497C41.6589 25.364 41.6734 25.3781 41.6854 25.3924ZM15.6962 37.5817C15.6915 37.5774 15.6862 37.5746 15.6813 37.5704C15.6851 37.5682 15.6888 37.5665 15.6926 37.5642C15.6941 37.5701 15.6949 37.5761 15.6962 37.5817ZM15.9069 36.9773C15.9101 36.9965 15.9172 37.0141 15.9261 37.0313C15.9223 37.0339 15.9188 37.0367 15.915 37.0393C15.9125 37.0187 15.9093 36.998 15.9069 36.9773ZM24.9946 41.1795C24.9744 41.1804 24.9542 41.1812 24.9335 41.1815C24.9282 41.1815 24.9241 41.1838 24.919 41.1842C24.9214 41.1705 24.9211 41.1563 24.9211 41.1422C24.9454 41.155 24.9701 41.1671 24.9946 41.1795ZM22.7807 39.9357C22.7681 39.9423 22.7566 39.9501 22.7451 39.9592C22.7159 39.931 22.6865 39.9028 22.6577 39.874C22.6786 39.881 22.6993 39.8881 22.7204 39.8949C22.7408 39.9084 22.7602 39.9223 22.7807 39.9357ZM23.3222 41.3107C23.3216 41.3092 23.3207 41.3079 23.3199 41.3064C23.3246 41.3077 23.3293 41.3092 23.3342 41.3105C23.3301 41.3105 23.3261 41.3107 23.3222 41.3107ZM15.627 37.2332C15.6133 37.2414 15.5997 37.2512 15.5859 37.2595C15.5895 37.2546 15.5939 37.2508 15.5971 37.2454C15.6059 37.2364 15.615 37.2275 15.624 37.2185C15.6248 37.2234 15.6261 37.2283 15.627 37.2332ZM16.0011 37.368C15.9936 37.38 15.9862 37.3924 15.9789 37.4046C15.9776 37.4054 15.9762 37.4059 15.9749 37.4065C15.9738 37.4009 15.973 37.395 15.9717 37.3894C15.9815 37.3828 15.9911 37.3749 16.0011 37.368ZM38.639 40.9464C38.6352 40.9629 38.6326 40.9798 38.633 40.9966C38.583 41.0112 38.5331 41.0259 38.4833 41.0405C38.4079 41.0567 38.3322 41.0734 38.2562 41.0911C38.2561 41.0907 38.2559 41.0904 38.2557 41.0898C38.384 41.043 38.5116 40.9949 38.639 40.9464ZM40.6235 41.0037C40.6274 41.0067 40.6321 41.0088 40.6365 41.0114C40.6084 41.0152 40.5805 41.0191 40.5526 41.0229C40.5762 41.0167 40.5999 41.0103 40.6235 41.0037ZM41.6067 39.7881C41.5995 39.7787 41.5929 39.7685 41.5835 39.7612C41.5673 39.7255 41.5403 39.6941 41.503 39.6719C41.504 39.6717 41.5047 39.6713 41.5056 39.6713C41.5075 39.6719 41.5094 39.6725 41.5115 39.6725C41.5955 39.6715 41.6802 39.6676 41.7646 39.6638C41.7111 39.7024 41.6583 39.743 41.6067 39.7881ZM39.3144 40.2743C39.3832 40.2186 39.4486 40.1596 39.5127 40.0992C39.5342 40.1269 39.5628 40.1481 39.5983 40.1585C39.5035 40.197 39.4089 40.2355 39.3144 40.2743ZM41.2358 40.9255C41.4376 40.8728 41.6393 40.818 41.8407 40.7606C41.8436 40.7599 41.8464 40.7589 41.8492 40.7582C41.847 40.7785 41.8486 40.799 41.853 40.8193C41.6483 40.8591 41.4425 40.8939 41.2358 40.9255ZM43.9027 40.1032C43.9432 40.0891 43.9747 40.0611 43.9975 40.0272C44.0103 40.0378 44.0238 40.047 44.0389 40.0535C43.9773 40.0785 43.916 40.1052 43.8542 40.1299C43.7958 40.1532 43.7372 40.1765 43.6784 40.1996C43.6769 40.193 43.6731 40.1874 43.6709 40.1812C43.7479 40.1551 43.826 40.1297 43.9027 40.1032ZM47.0605 37.3986C47.0492 37.4001 47.0375 37.3999 47.0262 37.4016C47.0431 37.3945 47.0607 37.3879 47.0769 37.3796C47.0712 37.3856 47.0661 37.3924 47.0605 37.3986ZM44.9183 37.9991C44.9183 37.9989 44.9183 37.9985 44.9181 37.9983C44.9169 37.9987 44.9156 37.9993 44.9143 37.9996C44.9066 38.001 44.8989 38.0026 44.8909 38.0042C44.9162 37.9932 44.9418 37.9827 44.9671 37.9716C44.9516 37.9812 44.935 37.9887 44.9198 37.9987C44.9192 37.9987 44.9188 37.9989 44.9183 37.9991ZM42.0435 38.8451C42.0352 38.84 42.0262 38.8362 42.0166 38.8327C42.0567 38.8252 42.0972 38.8197 42.1374 38.8122C42.1063 38.8231 42.0746 38.8338 42.0435 38.8451ZM40.8737 39.0344C40.8592 39.0316 40.8445 39.0297 40.83 39.0267C40.8157 39.0237 40.801 39.0192 40.7865 39.0154C40.8327 39.0101 40.8786 39.0034 40.9248 38.9977C40.9071 39.009 40.89 39.0211 40.8737 39.0344ZM19.3293 20.9789C19.8807 20.8198 20.3656 20.4861 20.9112 20.3205C21.4366 20.1609 21.986 20.0118 22.5231 19.8975C22.6055 19.8798 22.6863 19.8605 22.7666 19.8402C22.7762 19.8385 22.786 19.8368 22.7956 19.8349C23.0142 19.808 23.2329 19.7862 23.4501 19.7685C24.3938 19.6917 25.3413 19.7778 26.271 19.5967C26.7606 19.5014 27.2653 19.4426 27.7593 19.37C28.2153 19.3031 28.6872 19.3502 29.1467 19.3518C30.1352 19.3549 31.1236 19.3581 32.1121 19.3612C33.0917 19.3643 34.0909 19.3213 35.0441 19.5717C35.4354 19.6745 35.8059 19.6746 36.199 19.7296C36.6472 19.7924 37.0955 19.8475 37.5459 19.8941C38.0176 19.9428 38.4594 20.1066 38.9185 20.2104C39.409 20.3211 39.8659 20.5076 40.3626 20.598C40.8658 20.6896 41.3504 20.7597 41.829 20.9458C42.2646 21.1152 42.7129 21.2126 43.1434 21.3831C43.3215 21.4874 43.4918 21.6047 43.6756 21.7021C43.9566 21.851 44.2161 21.9939 44.4688 22.1704C44.5086 22.2148 44.547 22.2603 44.5903 22.3043C44.8099 22.5278 45.0287 22.7006 45.1936 22.9739C45.3414 23.2187 45.397 23.4791 45.4439 23.7568C45.4458 23.8436 45.4454 23.9292 45.4448 24.0108C45.4443 24.0655 45.4444 24.1234 45.4422 24.1822C45.3971 24.4176 45.2792 24.6244 45.1199 24.8045C45.03 24.8709 44.9333 24.9348 44.8587 24.9902C44.6458 25.148 44.4228 25.2596 44.1874 25.3606C43.9469 25.1905 43.7387 24.9587 43.4788 24.8034C43.1168 24.587 42.7401 24.3894 42.3741 24.1783C42.029 23.9792 41.6745 23.8216 41.3029 23.6823C40.7392 23.4077 40.2253 23.2558 39.596 23.1131C39.5067 23.0928 39.4187 23.0689 39.3301 23.0467C39.0099 22.9098 38.5928 22.7579 38.2157 22.7153C37.846 22.5978 37.4715 22.4962 37.0863 22.4316C36.1502 22.2744 35.1868 22.1817 34.2398 22.1178C32.29 21.9862 30.3082 22.0777 28.3633 22.2391C26.4595 22.3968 24.5962 22.7224 22.7798 23.3172C22.5776 23.3834 22.3746 23.455 22.1718 23.5276C21.9491 23.5257 21.7246 23.5511 21.5275 23.6177C21.4595 23.6406 21.44 23.7395 21.4868 23.7848C20.9468 23.9963 20.4122 24.2243 19.8975 24.4657C19.4145 24.6924 18.9433 24.9551 18.5135 25.2719C18.3648 25.3815 18.2176 25.4962 18.0787 25.6178C17.9922 25.6936 17.9285 25.777 17.8678 25.8612C17.4896 25.733 17.1128 25.5266 16.7864 25.311C16.359 25.0286 16.0396 24.552 15.8479 24.0873C15.7567 23.866 15.6919 23.6898 15.7086 23.4913C15.726 23.4071 15.7478 23.3242 15.7706 23.2428C15.7776 23.2253 15.7827 23.2088 15.791 23.1907C15.9063 22.939 16.0727 22.6978 16.2589 22.4945C16.3974 22.3436 16.5525 22.2056 16.7144 22.0751C17.218 21.7264 17.7724 21.4485 18.3484 21.2513C18.3994 21.2338 18.4513 21.2163 18.5027 21.1989C18.7771 21.1242 19.0542 21.0582 19.3293 20.9789ZM43.0823 25.8795C43.0838 25.8635 43.0831 25.8475 43.0789 25.8323C43.0793 25.8317 43.0797 25.8312 43.08 25.8308C43.1124 25.8231 43.1434 25.8159 43.1718 25.8095C43.1784 25.8174 43.1878 25.8214 43.1959 25.8274C43.1584 25.8453 43.1207 25.8631 43.0823 25.8795ZM42.2282 25.3236C42.2346 25.3236 42.2437 25.3239 42.2518 25.3243C42.2521 25.3333 42.2514 25.3427 42.2497 25.3527C42.2421 25.3433 42.2359 25.333 42.2282 25.3236ZM37.4302 22.9251C37.4298 22.9258 37.4295 22.9266 37.4291 22.9271C37.3441 22.914 37.2663 22.9016 37.2048 22.8865C37.1065 22.8623 37.0081 22.8384 36.9099 22.8151C37.085 22.8478 37.2585 22.8837 37.4302 22.9251ZM18.674 26.087C18.7967 26.0647 18.9194 26.0352 19.0411 26.0002C19.0259 26.0115 19.014 26.0241 19.0042 26.0374C19.0027 26.0383 19.001 26.0389 18.9993 26.0399C18.9586 26.0677 18.9398 26.1077 18.933 26.1493C18.9036 26.1483 18.8742 26.1483 18.8446 26.1483C18.7888 26.1259 18.7319 26.1055 18.674 26.087ZM25.9785 23.2116C26.1534 23.1674 26.3296 23.1275 26.5064 23.0901C26.6353 23.0629 26.7648 23.0373 26.8948 23.0138C26.9408 23.0055 26.987 22.998 27.0329 22.9901C27.1494 22.9704 27.2661 22.9523 27.3833 22.9358C27.4344 22.9286 27.4854 22.9215 27.5365 22.9149C27.6541 22.8997 27.7723 22.8867 27.8908 22.8749C27.9383 22.8702 27.9856 22.8645 28.0333 22.8604C28.1971 22.8459 28.3616 22.8337 28.527 22.8258C28.6902 22.8179 28.7556 22.9593 28.7296 23.0834C28.7291 23.0862 28.7289 23.0892 28.7281 23.092C28.7247 23.1056 28.7196 23.1185 28.7142 23.1311C28.6901 23.1845 28.6473 23.2294 28.5826 23.249L28.6382 23.2432C29.4275 23.1704 30.3487 23.1473 31.1917 23.5105L31.173 23.5225C30.3811 23.1702 29.5202 23.1826 28.8589 23.233L28.8126 23.2328L28.7877 23.2789C28.7095 23.2751 28.6307 23.2732 28.5519 23.2714L28.4569 23.2699L28.2236 23.2954C27.7284 23.3537 27.2395 23.4133 26.7555 23.4815C26.3643 23.5586 25.9785 23.6556 25.5971 23.7671C25.5905 23.7684 25.5839 23.7694 25.5775 23.7705C25.5417 23.781 25.5066 23.7936 25.471 23.8043C25.3419 23.8433 25.2134 23.8842 25.0854 23.9271C25.0419 23.9416 24.9976 23.9542 24.9542 23.969C24.9358 23.9754 24.9177 23.9828 24.8992 23.9891C24.7226 24.0506 24.5468 24.1147 24.3723 24.183C24.364 24.1862 24.3557 24.1888 24.3474 24.192C24.3495 24.1914 24.3514 24.1909 24.3534 24.1901C24.348 24.1924 24.3423 24.1941 24.3368 24.1963C24.3402 24.1952 24.3436 24.1943 24.3472 24.1931C23.8934 24.3708 23.4456 24.5701 23.0035 24.7881C25.3472 23.8122 27.9592 23.3545 30.3413 23.528C27.8914 23.3567 25.2177 23.8453 22.8222 24.8793C22.7481 24.9167 22.6743 24.9538 22.6006 24.9923C22.5685 25.009 22.5371 25.0171 22.5069 25.0188C22.2005 25.1587 21.8984 25.3059 21.6032 25.4638L21.5786 25.477L21.5542 25.5202C21.5303 25.5631 21.5062 25.6059 21.4855 25.6511L21.3914 25.8541C21.4039 25.8199 21.4178 25.784 21.4331 25.7468L21.5371 25.4926L21.2978 25.6274C20.9092 25.8462 20.5319 26.0812 20.1736 26.3267L20.1836 26.3102C20.5939 26.0284 21.0516 25.7505 21.5443 25.4843L21.5674 25.4719L21.5748 25.4595L21.9364 25.2771C22.1147 25.1873 22.2956 25.1012 22.4781 25.0177C22.3132 25.0027 22.2041 24.7895 22.3175 24.6633C22.1251 24.8096 21.9568 24.9662 21.8198 25.1312L21.6688 25.313C21.7359 25.2168 21.8124 25.1224 21.9006 25.0277L22.2453 24.6558C22.297 24.6332 22.3488 24.6111 22.401 24.5892L22.4189 24.5793C22.8825 24.255 23.4737 23.992 24.2189 23.7756C24.5163 23.66 24.8165 23.5541 25.1193 23.4575C25.1201 23.4573 25.1206 23.4571 25.1212 23.4571C25.1255 23.4556 25.1299 23.4543 25.134 23.453C25.2699 23.4095 25.4065 23.3682 25.5435 23.3289C25.687 23.2877 25.8325 23.2484 25.9785 23.2116ZM37.8844 25.567C37.8906 25.5821 37.8999 25.5956 37.9108 25.608C37.8865 25.6095 37.8624 25.6103 37.8382 25.6118C37.8537 25.5973 37.8688 25.5819 37.8844 25.567ZM26.9397 27.4529C26.7126 27.4139 26.4858 27.3703 26.2595 27.3245C26.1849 27.3092 26.1101 27.2942 26.0354 27.2784C26.0232 27.2758 26.0109 27.2731 25.9987 27.2705C25.7584 27.2192 25.5183 27.165 25.2788 27.1067C24.5786 26.9364 23.8817 26.7385 23.1884 26.5217C22.89 26.4284 22.5923 26.3324 22.2955 26.2331C22.2018 26.2017 22.1568 26.129 22.1475 26.0521C22.147 26.0474 22.1462 26.0429 22.146 26.0382C22.1447 26.0137 22.146 25.9893 22.1515 25.9654C22.1598 25.9306 22.175 25.8977 22.1967 25.8705C22.1747 25.8562 22.1515 25.8434 22.1298 25.8287L22.1978 25.8691C22.2306 25.8287 22.2772 25.8018 22.3347 25.8L22.3315 25.7644L22.4907 25.7451L22.3976 25.6146C22.3682 25.5734 22.3397 25.5311 22.3141 25.486L22.2694 25.4067L22.188 25.4473C21.7305 25.6763 21.4849 25.8817 21.4378 26.0759C21.4165 26.163 21.4342 26.2489 21.4921 26.3108L21.4708 26.3126C21.4319 26.2594 21.4095 26.2059 21.4046 26.1536L21.3918 26.0812L21.3262 26.065C21.3302 26.0487 21.3345 26.0323 21.339 26.0156L21.6338 25.764C22.0712 25.3907 22.969 25.0916 23.3523 24.9637L23.469 24.9244C23.7562 24.825 24.0476 24.737 24.3408 24.6549C24.1604 24.7067 23.9814 24.7618 23.8037 24.8207L23.75 24.8383C23.5184 24.9143 22.9034 25.1158 22.3727 25.3593L22.277 25.4033L22.3301 25.4941C22.4217 25.6503 22.5374 25.7817 22.669 25.8956C22.7628 25.9265 22.8569 25.956 22.9509 25.9863C22.9522 25.9872 22.9534 25.9882 22.9547 25.9889C23.0093 26.0066 23.0642 26.0229 23.1186 26.0402C23.2276 26.0748 23.3369 26.1088 23.446 26.1427C23.5363 26.1705 23.6265 26.1983 23.717 26.2254C23.7899 26.2474 23.8627 26.2696 23.9358 26.2912C23.936 26.2914 23.936 26.2918 23.9362 26.2921C24.047 26.3249 24.158 26.3562 24.269 26.3876C24.2692 26.3876 24.2696 26.3878 24.2699 26.388C24.2694 26.3876 24.2692 26.3871 24.2688 26.3867C24.2956 26.3942 24.3221 26.4021 24.3489 26.4096C24.3482 26.4098 24.3476 26.41 24.347 26.41C24.3789 26.419 24.4105 26.4283 24.4422 26.4375C24.4597 26.4425 24.4771 26.4476 24.4946 26.4525C24.4976 26.4529 24.5008 26.4531 24.5038 26.4535C24.6955 26.5065 24.8873 26.5578 25.0796 26.6069C25.1329 26.6112 25.186 26.6155 25.2377 26.6198C25.3622 26.6298 25.4821 26.6396 25.595 26.6503C25.9985 26.6886 26.4037 26.72 26.8094 26.7467C26.277 26.7131 25.752 26.6738 25.2251 26.6249L25.1911 26.6217C25.1636 26.6193 25.1325 26.6161 25.1043 26.6134C25.3048 26.6644 25.5055 26.7123 25.7064 26.7584C25.7058 26.7584 25.7054 26.7584 25.7049 26.7584C25.7079 26.7591 25.7111 26.7597 25.7143 26.7605C25.9105 26.8054 26.1069 26.8471 26.3034 26.8874C26.3025 26.8875 26.3015 26.8875 26.3006 26.8877C26.3177 26.8913 26.3349 26.8943 26.3518 26.8979C26.3741 26.9024 26.3963 26.9076 26.4188 26.9122C26.4197 26.9122 26.4206 26.9124 26.4218 26.9124C26.4845 26.925 26.5475 26.9366 26.6102 26.9486C26.6042 26.9483 26.5984 26.9483 26.5923 26.9479C26.6391 26.9569 26.6858 26.9637 26.7325 26.9723C26.9091 27.0054 27.0859 27.0368 27.263 27.065H27.2634C27.27 27.0661 27.2764 27.0675 27.2828 27.0684C27.2859 27.0688 27.2887 27.0695 27.2915 27.0699C27.2924 27.0699 27.2936 27.0699 27.2945 27.0699C27.521 27.1054 27.7478 27.1372 27.9747 27.165C28.5975 27.1594 29.2211 27.137 29.8353 27.1116L30.4084 27.0887L30.4079 26.9932C30.4152 26.993 30.4224 26.9926 30.4297 26.9924C30.4224 26.9922 30.4152 26.9921 30.4079 26.9917L30.4075 26.8979C29.6207 26.8759 28.8866 26.8513 28.1791 26.8199C29.0251 26.8556 29.8677 26.877 30.6962 26.8979L31.2827 26.925L31.2182 27.0631L31.3711 27.0605C31.7482 27.0537 32.0789 27.0549 32.3871 27.0716C31.5463 27.0503 30.66 27.0849 29.8027 27.119C29.3465 27.1372 28.8876 27.1556 28.4292 27.166L28.4289 27.2124C28.5742 27.2263 28.7196 27.2376 28.8651 27.2479C28.8538 27.2483 28.8425 27.2489 28.8312 27.2491C28.8631 27.2513 28.8951 27.2521 28.927 27.2543C29.0076 27.2598 29.0886 27.2633 29.1693 27.2675C29.2424 27.2714 29.3156 27.2765 29.3887 27.2795H29.3889C29.4041 27.2801 29.4192 27.2814 29.4345 27.282C29.4748 27.2822 29.5151 27.2833 29.5555 27.2833C29.554 27.2831 29.5526 27.2825 29.5515 27.2821C29.8924 27.2919 30.2337 27.2906 30.5756 27.2775C30.5816 27.2775 30.5877 27.2775 30.5937 27.2775C30.6035 27.2771 30.6133 27.2759 30.6231 27.2756C30.6297 27.2756 30.6365 27.2756 30.6431 27.2756C30.6777 27.2741 30.7124 27.2705 30.7469 27.2688C30.8918 27.2615 31.0366 27.2521 31.1817 27.2402C31.1828 27.2402 31.1838 27.2402 31.1849 27.24C31.2103 27.238 31.236 27.2372 31.2614 27.235C31.2948 27.232 31.3283 27.2274 31.3617 27.2242C31.5049 27.2107 31.6483 27.1944 31.7917 27.1761C31.8287 27.1714 31.8656 27.1688 31.9025 27.1637C31.9005 27.1637 31.8984 27.1637 31.8963 27.1637C31.9052 27.1624 31.914 27.162 31.9229 27.1607C31.9189 27.1607 31.915 27.1609 31.911 27.1609C32.1004 27.135 32.29 27.1056 32.4798 27.0714C32.4798 27.0725 32.4802 27.0735 32.4802 27.0746C32.8166 27.0139 33.1533 26.9409 33.4903 26.8528C33.6026 26.8234 33.7149 26.7922 33.8275 26.7593C33.8552 26.7512 33.881 26.7495 33.9051 26.7509C33.9083 26.7511 33.9117 26.7509 33.9149 26.751C33.9373 26.7535 33.9579 26.7601 33.9767 26.7693C33.9801 26.771 33.9835 26.7727 33.9867 26.7745C34.0048 26.7847 34.021 26.7975 34.0349 26.8127C34.037 26.815 34.0389 26.8174 34.0408 26.8199C34.0547 26.8364 34.067 26.8548 34.0758 26.8748C34.076 26.8749 34.076 26.8753 34.0762 26.8755C34.0856 26.8969 34.092 26.9201 34.0953 26.9434C34.0953 26.9439 34.0954 26.9443 34.0956 26.9449C34.0986 26.9678 34.0981 26.9913 34.0943 27.0139C34.0941 27.0154 34.0939 27.0167 34.0937 27.0182C34.0896 27.0406 34.0822 27.0624 34.0709 27.0825C34.0704 27.0836 34.0696 27.0846 34.0689 27.0859C34.057 27.1062 34.0417 27.125 34.0219 27.1408C34.0006 27.1575 33.9754 27.1716 33.9443 27.1808C33.6629 27.2632 33.3817 27.3322 33.1008 27.3948C32.9811 27.4215 32.8614 27.4483 32.7419 27.4717C32.6699 27.4856 32.5981 27.4972 32.5261 27.5098C32.4125 27.5301 32.2987 27.5508 32.185 27.5679C32.1021 27.5805 32.0196 27.5903 31.9366 27.6014C31.8673 27.6106 31.7981 27.62 31.729 27.6283C31.5467 27.6497 31.3647 27.6676 31.1826 27.682C31.1489 27.6847 31.1153 27.6886 31.0816 27.6909C30.8726 27.7059 30.6638 27.7155 30.455 27.7215C30.3862 27.7236 30.3174 27.7238 30.2488 27.7249C30.1007 27.7272 29.9524 27.7279 29.8044 27.7258C29.7256 27.7249 29.6469 27.7234 29.5681 27.7213C29.4056 27.7168 29.2434 27.7102 29.0813 27.701C29.0297 27.698 28.978 27.6957 28.9266 27.6924C28.2624 27.6482 27.6 27.5658 26.9397 27.4529ZM21.7872 24.8774C21.1287 25.1969 20.5179 25.5674 19.9872 25.9825L19.9857 25.9592C20.6523 25.4569 21.4097 25.0196 22.2391 24.658L21.7872 24.8774ZM34.716 27.3931C34.6687 27.3906 34.6211 27.3886 34.5738 27.3861C34.6714 27.3709 34.7741 27.3528 34.8791 27.331C34.8165 27.3568 34.765 27.3782 34.7253 27.3951C34.7221 27.3946 34.7196 27.3933 34.716 27.3931ZM25.5155 25.8956C25.5973 25.8819 25.6791 25.8691 25.7607 25.8535C25.7695 25.8669 25.7816 25.877 25.7921 25.8887C25.6998 25.8921 25.6074 25.8945 25.5155 25.8956ZM33.3045 25.0906C33.3099 25.0865 33.3158 25.0822 33.3177 25.0807C33.3397 25.0651 33.3623 25.0506 33.3848 25.0355C33.3878 25.0352 33.3898 25.0352 33.3946 25.034C33.3957 25.0339 33.3966 25.0331 33.3976 25.0329C33.4083 25.0376 33.4189 25.0425 33.4296 25.0472C33.3934 25.0611 33.3574 25.0754 33.3213 25.0893C33.3158 25.0901 33.3101 25.0904 33.3045 25.0906ZM32.5612 24.9412C32.5465 24.9316 32.5299 24.9235 32.5118 24.9167C32.5367 24.9167 32.5616 24.9165 32.5865 24.9165C32.5782 24.9248 32.5699 24.9331 32.5612 24.9412ZM25.5733 25.4907C25.1451 25.7312 24.7336 26.0058 24.3423 26.314L24.3625 26.3395C24.3536 26.3382 24.3446 26.3369 24.3355 26.3356L24.3193 26.3224C24.7147 26.0113 25.1355 25.7359 25.5733 25.4907ZM28.0167 26.8125C27.8965 26.8069 27.7755 26.8014 27.6567 26.7954C27.7766 26.8014 27.8966 26.8071 28.0167 26.8125ZM34.5779 25.1179L34.5738 25.1258C34.1816 25.1775 33.773 24.9929 33.3776 24.8154C33.2427 24.7549 33.1049 24.6928 32.9681 24.6406C33.1349 24.6977 33.3054 24.7635 33.4886 24.8374L33.6179 24.8912C33.9126 25.0143 34.2456 25.1542 34.5779 25.1179ZM32.5503 24.7129C32.5512 24.7131 32.5523 24.7135 32.5533 24.7137C32.5114 24.7385 32.4613 24.752 32.4035 24.7442C31.9547 24.6829 31.5085 24.6648 31.0635 24.6705C31.0345 24.6708 31.0053 24.6701 30.9763 24.6706C30.8794 24.6725 30.7829 24.677 30.6862 24.6812C30.6189 24.684 30.5515 24.6857 30.4842 24.6894C30.4733 24.6902 30.4621 24.6902 30.4512 24.6908C30.4514 24.6911 30.4516 24.6913 30.4518 24.6915C30.0764 24.7129 29.7015 24.7477 29.3267 24.787C29.3267 24.7868 29.3267 24.7868 29.3267 24.7866C29.3052 24.7889 29.2837 24.7913 29.2622 24.7936C29.0093 24.8205 28.7564 24.8483 28.5035 24.8759C28.3974 24.8874 28.2913 24.8989 28.1852 24.91C28.0435 24.9246 27.9014 24.9372 27.7594 24.95C27.6699 24.9581 27.5806 24.9669 27.4909 24.9741C27.3053 24.9886 27.1193 24.9991 26.9331 25.0075C26.8087 25.0136 26.6845 25.0203 26.5597 25.0226C26.5541 25.0226 26.5503 25.0201 26.545 25.0198C26.4922 25.0419 26.4389 25.0622 26.3865 25.0854C26.4363 25.0634 26.4853 25.0402 26.5347 25.0179C26.4397 25.0092 26.3805 24.95 26.3592 24.8752C25.493 25.1942 24.746 25.6105 24.1403 26.116L24.1214 26.1213C24.7358 25.6084 25.4866 25.1923 26.3583 24.8703C26.3492 24.8359 26.3494 24.8 26.3556 24.7652C26.3575 24.7541 26.362 24.744 26.3654 24.7332C26.3675 24.7267 26.369 24.7199 26.3716 24.7135C26.3741 24.7079 26.3754 24.7017 26.3784 24.6962C26.382 24.6889 26.3878 24.6832 26.3924 24.6763C26.4001 24.665 26.4074 24.6533 26.4174 24.6438C26.4165 24.6441 26.4155 24.6445 26.4146 24.6447C26.4155 24.6439 26.4159 24.6426 26.4167 24.6417C26.4269 24.6317 26.4406 24.6251 26.4531 24.6174C26.4615 24.6122 26.4681 24.6052 26.4777 24.6013C26.5017 24.5915 26.5288 24.5857 26.5597 24.5851C26.6877 24.5828 26.8153 24.5789 26.9427 24.5733C26.9429 24.5733 26.9429 24.5733 26.9429 24.5733C26.9438 24.5733 26.9447 24.5733 26.9455 24.5733C26.9468 24.5729 26.9483 24.5725 26.9496 24.5721C27.1012 24.5652 27.2523 24.5567 27.4033 24.546C27.7383 24.4599 28.0838 24.3824 28.4479 24.32C28.4984 24.3112 28.5493 24.304 28.6002 24.2967L28.6944 24.283L28.6816 24.0935C27.8495 24.0799 27.0299 24.1316 26.2297 24.2482C27.3262 24.0854 28.4375 24.041 29.5285 24.1213L29.5587 24.1747L29.6199 24.1694C30.7906 24.0704 31.879 24.1429 32.8661 24.3828C32.7414 24.3544 32.6079 24.3266 32.4598 24.2992L32.4566 24.3151C32.4779 24.318 32.499 24.3195 32.5201 24.3223C32.6051 24.3339 32.652 24.3807 32.6696 24.4392C32.6684 24.439 32.6675 24.4387 32.6664 24.4385C32.6677 24.4422 32.6686 24.4462 32.6696 24.4499C32.6701 24.4501 32.6707 24.4503 32.6713 24.4505C32.6922 24.5428 32.6445 24.6584 32.5503 24.7129ZM27.2593 26.7738C27.1586 26.7682 27.0578 26.7623 26.9579 26.7561C27.0584 26.7625 27.1588 26.768 27.2593 26.7738ZM37.6992 26.7183C37.6924 26.7268 37.6905 26.736 37.6852 26.7449C37.5729 26.7687 37.4651 26.7913 37.3712 26.8148C37.3567 26.8184 37.342 26.8217 37.3275 26.8255C37.4836 26.751 37.6405 26.679 37.7987 26.6089C37.7653 26.645 37.7303 26.6794 37.6992 26.7183ZM31.3986 27.8742C31.4139 27.874 31.4289 27.874 31.4442 27.8736C31.4448 27.8745 31.4459 27.8751 31.4465 27.8762C31.4304 27.8762 31.4142 27.8762 31.3982 27.8762C31.3982 27.8755 31.3986 27.8749 31.3986 27.8742ZM38.8361 26.0966C38.818 26.0833 38.8003 26.0699 38.7794 26.0571C38.8052 26.0476 38.8307 26.037 38.8565 26.0274C38.8456 26.0492 38.8384 26.0724 38.8361 26.0966ZM36.1719 25.6573C36.176 25.6569 36.1804 25.6563 36.1845 25.6558C36.1717 25.6689 36.1576 25.6806 36.1453 25.6941C36.1255 25.7157 36.114 25.7419 36.1067 25.7693C36.0036 25.781 35.9013 25.7943 35.7984 25.8064C35.9329 25.7682 36.0613 25.7221 36.1719 25.6573ZM31.1332 22.538C31.0984 22.5337 31.0635 22.5286 31.0288 22.5239C31.0177 22.5107 31.0047 22.4992 30.9904 22.4906C31.1248 22.4868 31.2589 22.4827 31.3933 22.4801C31.3064 22.4987 31.2196 22.5175 31.1332 22.538ZM26.7704 22.8155C26.7474 22.8151 26.7242 22.8162 26.7011 22.8166C26.774 22.8066 26.8471 22.797 26.9202 22.7876C26.8703 22.7972 26.8204 22.8061 26.7704 22.8155ZM25.5701 23.0001C25.2284 23.0711 24.8883 23.1477 24.5521 23.239C24.4416 23.2578 24.3312 23.2764 24.2208 23.2943C24.6879 23.1753 25.1593 23.073 25.6338 22.9864C25.6125 22.9911 25.591 22.9958 25.5701 23.0001ZM39.2074 26.3997C39.2066 26.3634 39.1963 26.3279 39.1763 26.2968C39.3414 26.2814 39.5057 26.2615 39.6697 26.2374C39.5112 26.2861 39.3561 26.3388 39.2074 26.3997ZM42.2427 25.7086C42.2406 25.7031 42.2386 25.6979 42.2365 25.6926C42.2388 25.6979 42.2405 25.7031 42.2427 25.7086ZM39.8331 20.159C39.8218 20.156 39.8106 20.1528 39.7993 20.1498C39.8108 20.1524 39.8223 20.1553 39.8338 20.1579C39.8336 20.1581 39.8335 20.1587 39.8331 20.159ZM25.4616 19.5168C25.249 19.5264 25.0362 19.5279 24.8233 19.5289C25.3491 19.4638 25.8894 19.4074 26.4427 19.3602C26.1163 19.4283 25.7885 19.5022 25.4616 19.5168ZM17.2007 35.5712C17.1892 35.5673 17.1782 35.563 17.1647 35.5619C17.1633 35.5617 17.1618 35.5617 17.1605 35.5617C17.1603 35.5607 17.1603 35.5598 17.1601 35.5588C17.1803 35.5498 17.2005 35.5404 17.2208 35.5314C17.214 35.5446 17.2071 35.5579 17.2007 35.5712ZM19.0229 40.8725C19.1028 40.8901 19.1823 40.9093 19.2615 40.9296C19.1817 40.911 19.1016 40.8933 19.0223 40.8744C19.0225 40.8736 19.0227 40.873 19.0229 40.8725ZM21.698 41.4173C21.8204 41.4342 21.9374 41.4667 22.0533 41.5019C21.8577 41.4677 21.6634 41.4301 21.4687 41.3936C21.545 41.3998 21.6213 41.4066 21.698 41.4173ZM28.9085 42.2396C28.9494 42.2456 28.9905 42.2511 29.0315 42.2569C28.9858 42.2548 28.9396 42.2541 28.8938 42.252C28.8983 42.2475 28.9043 42.2443 28.9085 42.2396ZM33.8493 42.2101C33.8559 42.2253 33.8653 42.2394 33.8755 42.2528C33.7238 42.2595 33.5725 42.2686 33.4208 42.274C33.5638 42.2543 33.7068 42.2342 33.8493 42.2101ZM45.7315 37.6062C45.7268 37.608 45.722 37.6101 45.7171 37.6118C45.7219 37.6094 45.7262 37.6067 45.7309 37.6043C45.7311 37.605 45.7311 37.6056 45.7315 37.6062ZM45.2844 41.9435C45.0485 42.1135 44.8035 42.2319 44.5485 42.3688C44.2377 42.5353 43.9858 42.732 43.6513 42.8608C43.0559 43.0897 42.3739 43.2539 41.8196 43.5648C41.5009 43.7436 41.2497 43.8581 40.8826 43.9198C40.5929 43.9683 40.3054 44.023 40.0195 44.0914C39.2766 44.2693 38.5647 44.5471 37.8149 44.7001C36.3396 45.0011 34.8018 45.0902 33.303 45.2087C31.777 45.3292 30.2379 45.289 28.7164 45.1271C27.1769 44.9635 25.6321 44.8075 24.1073 44.5371C23.4477 44.4202 22.7717 44.3901 22.127 44.198C21.414 43.9856 20.739 43.6417 20.0407 43.384C19.0455 43.0166 18.1056 42.4789 17.2137 41.8762C17.2029 41.8535 17.1873 41.8322 17.1599 41.8166C17.0506 41.754 16.944 41.6869 16.8388 41.6177C16.6803 41.506 16.5237 41.3927 16.3684 41.2782C16.1036 41.0719 15.8502 40.849 15.6059 40.6147C15.2991 40.2989 14.9979 39.9808 14.7007 39.6601C14.6913 39.6563 14.6821 39.6516 14.673 39.6456C14.67 39.6422 14.667 39.639 14.664 39.6356C14.658 39.6309 14.6516 39.6289 14.6457 39.6228C14.6367 39.6134 14.6284 39.6044 14.6193 39.595C14.5933 39.589 14.5677 39.5785 14.5456 39.5563C14.4196 39.4294 14.3121 39.3006 14.2128 39.1703C14.1757 39.122 14.1391 39.0733 14.1056 39.0242C14.1007 39.0171 14.0958 39.01 14.0911 39.0028C14.0602 38.9564 14.0323 38.9092 14.0044 38.8622C13.978 38.8182 13.9529 38.7736 13.9288 38.7291C13.9286 38.7291 13.9288 38.7289 13.9286 38.7287C13.9192 38.711 13.9079 38.6937 13.8987 38.6759C13.857 38.5926 13.8176 38.5084 13.7848 38.4217C13.7811 38.417 13.7782 38.4119 13.7745 38.407C13.6819 38.2877 13.6269 38.1626 13.602 38.0346C13.5858 38.0344 13.57 38.0301 13.5544 38.0258C13.5519 37.7167 13.5408 37.4454 13.7411 37.1849C13.8723 37.0143 14.0099 36.8448 14.161 36.6912C14.5635 36.2825 15.0539 35.9933 15.5132 35.6645C15.6634 35.557 15.8 35.4538 15.9368 35.3577C16.3075 35.189 16.6945 35.0691 17.0795 34.9413C17.2676 34.8414 17.456 34.742 17.6464 34.6461C17.7146 34.6117 17.7794 34.6282 17.8252 34.6668C17.8256 34.6668 17.826 34.6668 17.8263 34.6668C17.8891 34.651 17.9517 34.639 18.014 34.6296C18.035 34.6638 18.0566 34.6976 18.0789 34.7311C18.0455 34.7113 18.0091 34.7012 17.973 34.7018C17.9833 34.7117 17.9931 34.7226 18.0003 34.7371C18.0225 34.7815 18.0448 34.8258 18.067 34.8702C18.1011 34.9384 18.0894 35.0291 18.0254 35.0762C18.0195 35.0806 18.0159 35.0866 18.0093 35.0902C17.8931 35.1503 17.7745 35.2071 17.6548 35.262C17.6305 35.2731 17.6058 35.2836 17.5815 35.2947C17.4788 35.3409 17.3759 35.3865 17.2717 35.4304C17.2318 35.4474 17.1916 35.4641 17.1513 35.4808C17.1513 35.4806 17.1513 35.4804 17.1511 35.4801C16.8756 35.5946 16.598 35.7062 16.3238 35.8235C16.316 35.8269 16.3085 35.8303 16.3006 35.8337C16.1981 35.8777 16.0959 35.9223 15.9947 35.9685C15.9306 35.9978 15.8681 36.0292 15.8047 36.0597C15.8013 36.0599 15.7978 36.0597 15.7944 36.0599C15.7473 36.0826 15.7018 36.1082 15.6553 36.1319C15.6527 36.1332 15.6498 36.1345 15.6472 36.1358V36.136C15.6268 36.1465 15.6065 36.1571 15.5861 36.1676C15.5861 36.1676 15.5863 36.1674 15.5863 36.1672C15.5841 36.1683 15.5818 36.1697 15.5795 36.171C15.5075 36.2088 15.4359 36.2473 15.3656 36.2875C15.2705 36.3411 15.1766 36.3968 15.0854 36.4569C15.0298 36.4936 14.9787 36.5308 14.9303 36.5682C14.9143 36.5806 14.9001 36.5932 14.8849 36.6054C14.8538 36.6308 14.8236 36.6566 14.7957 36.6823C14.7799 36.697 14.765 36.7117 14.7501 36.7265C14.7256 36.7508 14.7024 36.7752 14.6806 36.7998C14.6672 36.8151 14.6536 36.8301 14.6412 36.8451C14.6201 36.8709 14.6009 36.8966 14.5824 36.9226C14.5726 36.9363 14.562 36.95 14.553 36.964C14.5296 36.9999 14.5085 37.0358 14.49 37.0721C14.4878 37.0764 14.4852 37.0805 14.4829 37.0848C14.4633 37.1243 14.4471 37.1638 14.4329 37.2035C14.4284 37.2164 14.425 37.2296 14.4209 37.2428C14.4147 37.2625 14.4075 37.2822 14.4028 37.302C14.4037 37.3012 14.4045 37.3007 14.4054 37.2999C14.3542 37.5071 14.3709 37.7175 14.4384 37.9256C14.3155 38.2574 14.6423 38.5392 14.8807 38.7473C15.3225 39.1329 15.8353 39.4416 16.2823 39.8182C16.6095 40.0938 16.9543 40.2314 17.3169 40.356C17.5103 40.4809 17.7048 40.6036 17.9021 40.7223C17.9272 40.7337 17.953 40.7431 17.9779 40.7552C17.9865 40.7576 17.9954 40.7599 18.0041 40.7623C18.0352 40.7646 18.0664 40.7657 18.0975 40.7674C18.1573 40.7879 18.2185 40.8054 18.2803 40.8221C18.3621 40.8648 18.459 40.8896 18.5542 40.9127C18.6041 40.9292 18.6542 40.9454 18.7042 40.9625C18.7196 40.9678 18.7336 40.9667 18.7479 40.9678C18.7496 40.9685 18.7517 40.9689 18.7536 40.9697C18.7732 40.9772 18.7918 40.9783 18.8107 40.9804L18.8014 41.0178C20.1866 41.3545 21.6004 41.6329 23.0327 41.8555C23.0338 41.8555 23.0346 41.8563 23.0357 41.8563C23.0372 41.8563 23.0387 41.8565 23.0402 41.8566C25.7876 42.2832 28.6041 42.5002 31.4242 42.5002C33.2372 42.5002 35.0515 42.4111 36.8498 42.2317C37.2397 42.183 37.6294 42.1375 38.019 42.0918C40.1708 41.8397 42.3792 41.5786 44.504 40.8012C44.9232 40.6668 45.341 40.5262 45.7471 40.3564C45.941 40.2754 46.1172 40.1801 46.2365 40.0319C46.2535 40.0229 46.2706 40.015 46.2876 40.0058L46.2742 39.9812C46.282 39.9695 46.2889 39.9569 46.2959 39.9445C46.3881 39.9156 46.4813 39.8892 46.5727 39.8588C46.7518 39.762 46.9299 39.6634 47.1048 39.5591C47.1125 39.5486 47.118 39.5377 47.1295 39.5279C47.2497 39.4303 47.3799 39.3346 47.5105 39.2369C47.8693 38.7043 48.2353 38.0918 48.1611 37.5563C48.0282 37.3648 47.8597 37.1418 47.7806 36.9179C47.7536 36.8959 47.7259 36.8741 47.6958 36.8527C47.6238 36.8021 47.5923 36.713 47.6379 36.6327C47.7184 36.4909 47.7073 36.4964 47.83 36.4007C47.8343 36.3973 47.8392 36.3962 47.8437 36.3932C47.8878 36.3436 47.9553 36.3221 48.0252 36.3755C48.0327 36.3813 48.0391 36.387 48.0465 36.3928C48.0834 36.3842 48.123 36.3868 48.1586 36.4088C48.2745 36.481 48.3737 36.5797 48.4583 36.6944L48.4549 36.6972C48.4771 36.7237 48.495 36.7508 48.5152 36.7776C48.5925 36.8995 48.655 37.0352 48.702 37.1775C48.7568 37.3042 48.7887 37.4313 48.8026 37.5584C48.8028 37.5616 48.8028 37.5646 48.8028 37.5676C48.8066 37.6039 48.8092 37.6402 48.8105 37.6767C48.8115 37.7175 48.8118 37.7581 48.809 37.7989C48.8115 37.893 48.8094 37.9852 48.7984 38.0711C48.786 38.1685 48.7613 38.2602 48.7287 38.348C48.7133 38.3901 48.6959 38.4311 48.6767 38.471C48.6741 38.4764 48.6718 38.4822 48.6692 38.4877C48.6694 38.4877 48.6695 38.4875 48.6697 38.4875C48.6688 38.4896 48.668 38.4918 48.6671 38.4937C48.6663 38.4954 48.6656 38.4969 48.6648 38.4986C48.6386 38.5501 48.6087 38.5996 48.5768 38.6481C48.5712 38.6567 48.5657 38.6654 48.5599 38.674C48.5288 38.7195 48.4956 38.7637 48.4604 38.8067C48.4524 38.8163 48.4443 38.8259 48.4362 38.8355C48.3989 38.8797 48.3605 38.9229 48.3198 38.9646C48.2489 39.0641 48.1726 39.1626 48.0925 39.2602C48.1055 39.2542 48.1183 39.248 48.1313 39.2418C47.3328 40.2547 46.3272 41.1926 45.2844 41.9435ZM47.8726 36.22C47.8556 36.2155 47.8382 36.2125 47.8219 36.2133C47.8119 36.2138 47.8026 36.2165 47.7928 36.2182C47.8034 36.2093 47.8143 36.2009 47.8251 36.192C47.8407 36.2014 47.8567 36.2108 47.8726 36.22Z" fill="black"/>
<path d="M48.0127 27.8841C48.0012 27.8826 47.9895 27.8818 47.978 27.8805C47.6765 27.8247 47.354 27.8258 47.0414 27.8604C46.6931 27.8841 46.3459 27.9383 46.0184 28.0138C45.75 28.0757 45.486 28.1535 45.2218 28.231C45.1986 28.2915 45.1762 28.3524 45.1551 28.4139C45.1539 28.4169 45.1526 28.4199 45.1517 28.4231C45.149 28.4306 45.1464 28.4379 45.1438 28.4455C45.1362 28.4665 45.1287 28.4876 45.1213 28.5088C45.1046 28.556 45.088 28.603 45.0712 28.6502C45.062 28.8166 45.0463 28.9832 45.025 29.1493C44.9877 29.3544 44.9504 29.5599 44.917 29.7662C44.816 30.0596 44.7047 30.3486 44.608 30.6443C44.5961 30.6802 44.6019 30.7126 44.6166 30.7398C44.4156 31.2378 44.2929 31.7667 44.13 32.2777C44.1038 32.36 44.075 32.4422 44.0475 32.5243C44.0011 32.6362 43.9546 32.748 43.9107 32.8616C43.7727 33.2184 43.6529 33.6072 43.5085 33.9791C43.4991 34.0024 43.4898 34.0257 43.4806 34.0492C43.3964 34.2603 43.3036 34.4652 43.1934 34.654C43.0907 34.83 42.9801 34.9959 42.8787 35.1727C42.7492 35.3981 42.5879 35.7976 42.3632 35.9427C42.2807 35.9961 42.2596 36.0835 42.2773 36.1741C42.3668 36.6349 43.1565 36.4325 43.4427 36.3409C43.8204 36.2204 44.1481 36.0303 44.4744 35.8068C44.7154 35.6417 44.9508 35.4936 45.1965 35.3511C45.5817 35.1541 45.9596 34.9407 46.3254 34.7092C46.4428 34.6363 46.5574 34.5605 46.6697 34.4822C47.0187 34.2468 47.357 33.9979 47.6789 33.7337C48.7326 32.8693 49.4958 31.6776 49.6557 30.3044C49.7917 29.136 49.261 28.0471 48.0127 27.8841ZM43.627 34.8989C43.5967 34.8644 43.5828 34.8194 43.5839 34.7756C43.6027 34.7397 43.6201 34.7029 43.638 34.6666C43.6457 34.66 43.6502 34.6515 43.6596 34.6465C43.7009 34.6239 43.7424 34.6085 43.7838 34.5961C43.8181 34.5684 43.863 34.553 43.9173 34.5637C43.9265 34.5654 43.9356 34.5679 43.9448 34.5699C44.0319 34.5667 44.1193 34.5818 44.2069 34.6036C44.3289 34.6341 44.4508 34.6797 44.5722 34.7265C44.732 34.7719 44.8912 34.8189 45.0514 34.8632C45.0755 34.87 45.0946 34.8824 45.1108 34.8974C45.1257 34.9012 45.1368 34.9104 45.149 34.9181C44.9566 35.0273 44.7687 35.1401 44.582 35.2571C44.2205 35.2484 43.8472 35.1492 43.627 34.8989ZM45.5983 34.6735C45.5934 34.6762 45.5887 34.679 45.5836 34.6814C45.2593 34.6068 44.9627 34.4536 44.6391 34.3787C44.3796 34.3188 44.1099 34.2483 43.8445 34.2003C43.981 33.8587 44.0988 33.5072 44.2271 33.1718C44.5102 32.4322 44.8607 31.7248 45.1392 30.9842C45.2887 30.5872 45.4101 30.1756 45.479 29.7566C45.4949 29.6607 45.5033 29.565 45.5084 29.4695C45.5341 29.396 45.5604 29.3229 45.5848 29.2488C45.6311 29.1085 45.6756 28.9674 45.7193 28.8262C45.7425 28.7513 45.757 28.6538 45.7806 28.5665C45.8384 28.5489 45.8955 28.5318 45.9483 28.5115C46.2657 28.3889 46.625 28.2847 46.9665 28.2535C47.5052 28.2041 48.2532 28.2468 48.651 28.6588C49.0942 29.1178 49.0807 29.9314 49.062 30.5244C49.0381 31.2862 48.6755 31.7973 48.2074 32.3544C47.8762 32.7486 47.541 33.144 47.1904 33.5213C46.7206 34.0276 46.2084 34.3592 45.5983 34.6735Z" fill="black"/>
<path d="M18.5496 31.0169C18.1663 30.1542 17.9027 29.2405 17.7085 28.3184C17.6671 28.1221 17.3784 28.2185 17.413 28.4103C17.5806 29.3417 17.8295 30.2534 18.2038 31.1244C18.3714 31.514 18.56 31.893 18.7797 32.2558C19.0155 32.645 19.3112 33.0394 19.4508 33.4763C19.5257 33.7104 19.8474 33.5946 19.8061 33.3658C19.7409 33.0041 19.478 32.6557 19.2854 32.3483C19.0134 31.915 18.7579 31.4858 18.5496 31.0169Z" fill="black"/>
<path d="M19.6695 31.1585C19.5928 31.013 19.3845 31.1485 19.4546 31.2924C19.8711 32.1466 20.181 32.9755 20.8377 33.6864C20.9959 33.8574 21.2586 33.5847 21.0876 33.422C20.4114 32.7787 20.0945 31.9652 19.6695 31.1585Z" fill="black"/>
<path d="M43.0766 32.1271C43.1083 32.034 42.9502 31.9731 42.9128 32.0652C42.6477 32.7191 42.6057 33.441 42.3853 34.112C42.2553 34.5081 42.0942 34.8856 41.8793 35.2435C41.7862 35.3986 41.6816 35.547 41.5876 35.7015C41.5407 35.7784 41.3954 36.1634 41.2902 36.191C41.0835 36.2456 41.1886 36.5817 41.3888 36.5067C41.6177 36.421 41.6579 36.2053 41.7619 36.0008C41.9826 35.5671 42.2547 35.1734 42.4302 34.7158C42.753 33.8741 42.789 32.973 43.0766 32.1271Z" fill="black"/>
</svg>
