<svg width="64" height="64" viewBox="0 0 64 64" fill="none" xmlns="http://www.w3.org/2000/svg">
<rect width="64" height="64" fill="white"/>
<path d="M46.5289 47.6332C46.5289 55.5228 40.155 54.2376 31.9415 54.2376C23.7185 54.2376 16.75 55.5228 16.75 47.6332C16.75 42.0552 20.0856 37.218 24.9451 34.8619C26.9613 33.8801 29.2284 33.3357 31.6441 33.3357C34.0506 33.3357 36.327 33.8801 38.3339 34.8619C43.1933 37.218 46.5289 42.0552 46.5289 47.6332Z" fill="white"/>
<path d="M26.1991 55.0359C22.6988 55.0359 19.7452 54.7411 17.8919 52.9981C16.6191 51.8003 16 50.0455 16 47.6332C16 41.9327 19.2981 36.7927 24.6073 34.2184C26.7923 33.1545 29.1601 32.6147 31.6446 32.6147C34.0979 32.6147 36.5292 33.1695 38.6747 34.2194C43.9819 36.7922 47.28 41.9328 47.28 47.6332C47.28 50.1277 46.6653 51.9177 45.4008 53.1065C43.2075 55.1677 39.391 55.0894 34.9706 54.9993C33.0308 54.9603 30.88 54.9598 28.9046 54.9988C27.9752 55.0176 27.0698 55.0359 26.1991 55.0359ZM31.9417 53.5167C32.9951 53.5167 34.0188 53.5378 35.0028 53.558C39.2542 53.6448 42.6089 53.7142 44.3508 52.0763C45.3119 51.1728 45.779 49.7193 45.779 47.6332C45.779 42.48 42.7965 37.8327 37.996 35.5053C36.0577 34.5573 33.8624 34.0565 31.6446 34.0565C29.3985 34.0565 27.2584 34.5437 25.2845 35.5049C20.4829 37.8332 17.501 42.48 17.501 47.6332C17.501 49.6377 17.9725 51.0555 18.9419 51.9679C20.8059 53.7204 24.5433 53.6424 28.8733 53.5575C29.8681 53.5373 30.8946 53.5167 31.9417 53.5167Z" fill="black"/>
<path d="M43.8548 28.7973C43.8548 30.4449 42.4647 31.7802 40.7496 31.7802C40.5926 31.7802 40.4357 31.7694 40.2899 31.7479C38.4177 35.4953 35.245 38.672 31.6464 38.672C28.0478 38.672 24.8752 35.4846 23.003 31.7371C22.846 31.7694 22.689 31.7802 22.5209 31.7802C20.8169 31.7802 19.4268 30.4449 19.4268 28.7973C19.4268 27.5698 20.1891 26.5252 21.2877 26.0622C21.2766 25.89 21.2542 25.7176 21.2429 25.5454C21.4895 25.5345 21.7362 25.4376 21.9379 25.2654C27.2743 20.5811 37.4536 21.378 42.0051 25.4053C42.0164 25.4161 42.0387 25.4269 42.0499 25.4376C42.0387 25.6422 42.0275 25.8576 42.0051 26.073C43.0925 26.536 43.8548 27.5805 43.8548 28.7973Z" fill="white"/>
<path d="M31.6463 39.3932C28.2251 39.3932 24.8547 36.8269 22.5592 32.5012C20.4284 32.4815 18.6758 30.852 18.6758 28.7972C18.6758 27.5042 19.376 26.3183 20.4983 25.6485L20.4934 25.5903C20.4807 25.3974 20.5496 25.2078 20.6839 25.0638C20.8183 24.9201 21.0074 24.8338 21.2082 24.8253C21.2869 24.8216 21.369 24.7869 21.4393 24.7268C27.0881 19.7674 37.7499 20.6624 42.5133 24.8751C42.6638 25.0196 42.8104 25.2717 42.7992 25.4758C42.7958 25.5382 42.7923 25.5988 42.7889 25.6584C43.9068 26.3281 44.6051 27.5108 44.6051 28.7972C44.6051 30.8397 42.8754 32.5012 40.7495 32.5012C40.7461 32.5012 40.7426 32.5012 40.7392 32.5012C38.4457 36.8269 35.0729 39.3932 31.6463 39.3932ZM23.0029 31.0162C23.2872 31.0162 23.5526 31.1716 23.6796 31.4255C25.2553 34.5803 28.1757 37.9515 31.6463 37.9515C35.1203 37.9515 38.0392 34.5859 39.613 31.4358C39.7566 31.149 40.0791 30.9838 40.404 31.0355C40.5135 31.0519 40.6312 31.0594 40.7495 31.0594C42.0477 31.0594 43.1041 30.0447 43.1041 28.7973C43.1041 27.9055 42.5534 27.095 41.7008 26.7322C41.4042 26.6064 41.2254 26.3112 41.2581 26.0015C41.2669 25.917 41.2737 25.8325 41.2796 25.7485C36.9823 22.1802 27.3876 21.4575 22.4439 25.7978C22.3183 25.9048 22.182 25.9949 22.0379 26.0667C22.0364 26.3497 21.8615 26.6078 21.5888 26.7228C20.7309 27.0837 20.1768 27.898 20.1768 28.7973C20.1768 30.0447 21.2283 31.0594 22.5206 31.0594C22.654 31.0594 22.7542 31.051 22.8455 31.0322C22.8983 31.0214 22.9511 31.0162 23.0029 31.0162Z" fill="black"/>
<path d="M42.7358 26.4097C42.2867 26.4097 41.8489 26.2492 41.5001 25.9399C37.2854 22.2083 27.4654 21.3926 22.4391 25.7972C21.8787 26.2881 21.0979 26.4106 20.4046 26.1154C19.7054 25.8193 19.2715 25.1791 19.2715 24.4451C19.2715 24.0832 19.3756 23.7364 19.5725 23.4412C22.0619 19.7166 27.1962 17.5558 32.992 17.8323C38.2 18.0702 42.6405 20.2296 44.3047 23.3332C44.504 23.7049 44.6056 24.1353 44.6056 24.6117C44.6056 25.3354 44.1762 25.9657 43.4848 26.2567C43.241 26.3595 42.9864 26.4097 42.7358 26.4097ZM31.6386 21.3541C35.8415 21.3541 40.003 22.6541 42.5173 24.8801C42.6561 25.0026 42.8061 24.9674 42.8823 24.9365C42.9493 24.9083 43.1046 24.8201 43.1046 24.6117C43.1046 24.3676 43.0597 24.1597 42.9703 23.9936C41.547 21.3395 37.6025 19.4862 32.9206 19.2722C28.8056 19.0891 23.4657 20.285 20.836 24.2203C20.7949 24.2813 20.7725 24.3611 20.7725 24.4451C20.7725 24.6713 20.9391 24.7661 21.0109 24.7966C21.0793 24.8248 21.2581 24.8778 21.4277 24.7318C24.0999 22.3913 27.8856 21.3541 31.6386 21.3541Z" fill="black"/>
<path d="M27.1685 28.2651C26.7541 28.2651 26.418 27.9422 26.418 27.5442V26.6511C26.418 26.2531 26.7541 25.9302 27.1685 25.9302C27.5828 25.9302 27.919 26.2531 27.919 26.6511V27.5442C27.919 27.9422 27.5828 28.2651 27.1685 28.2651Z" fill="black"/>
<path d="M36.1118 28.2651C35.6975 28.2651 35.3613 27.9422 35.3613 27.5442V26.6511C35.3613 26.2531 35.6975 25.9302 36.1118 25.9302C36.5262 25.9302 36.8623 26.2531 36.8623 26.6511V27.5442C36.8623 27.9422 36.5262 28.2651 36.1118 28.2651Z" fill="black"/>
<path d="M31.645 33.8345C30.6966 33.8345 29.7487 33.4942 29.028 32.8132C28.7324 32.5339 28.7285 32.0778 29.0192 31.7938C29.3094 31.5099 29.7853 31.5071 30.0805 31.7854C30.9399 32.5968 32.3403 32.5997 33.2017 31.792C33.4992 31.5141 33.9737 31.5193 34.2629 31.8042C34.5527 32.089 34.5468 32.5457 34.2502 32.8235C33.531 33.498 32.588 33.8345 31.645 33.8345Z" fill="black"/>
<path d="M20.4485 24.2124C20.4065 24.2124 20.364 24.2091 20.3215 24.2021C20.0361 24.1551 19.8045 23.9543 19.7259 23.6868C19.4361 22.6965 19.2891 21.6579 19.2891 20.6C19.2891 16.7802 21.199 13.4409 24.5289 11.4388C25.7831 10.6827 27.2054 10.1767 28.7631 9.93175C29.197 8.8002 30.3496 8 31.6449 8C32.9593 8 34.0918 8.78612 34.5199 9.93221C36.0863 10.1781 37.5087 10.6845 38.7536 11.4402C42.0815 13.4442 43.991 16.7834 43.991 20.6C43.991 21.3195 43.9172 22.0596 43.7652 22.8622C43.712 23.1438 43.4902 23.3686 43.2004 23.4343C42.9112 23.4995 42.6073 23.3958 42.4274 23.1672C40.5058 20.7178 36.3238 19.1672 31.7666 19.2502C27.0823 19.322 23.1808 21.0196 21.0617 23.9069C20.92 24.1002 20.6899 24.2124 20.4485 24.2124ZM31.6449 9.44177C30.8837 9.44177 30.2196 9.97915 30.0999 10.6921C30.0472 11.0084 29.7828 11.2534 29.4516 11.2928C27.9159 11.4763 26.5277 11.9362 25.3258 12.6604C22.443 14.3936 20.7901 17.2875 20.7901 20.6C20.7901 21.0266 20.8174 21.4495 20.8712 21.8658C23.3806 19.338 27.2484 17.8779 31.7426 17.8089C35.9901 17.7404 40.0171 19.0071 42.4758 21.1097C42.4851 20.9375 42.49 20.768 42.49 20.6C42.49 17.2903 40.8365 14.3965 37.9542 12.6604C36.762 11.9372 35.3749 11.4772 33.829 11.2928C33.4977 11.2534 33.2333 11.0089 33.1806 10.6925C33.0609 9.97962 32.4008 9.44177 31.6449 9.44177Z" fill="black"/>
<path d="M23.604 54.7557C23.1897 54.7557 22.8535 54.4328 22.8535 54.0348V50.5176C22.8535 50.1196 23.1897 49.7968 23.604 49.7968C24.0184 49.7968 24.3545 50.1196 24.3545 50.5176V54.0348C24.3545 54.4328 24.0184 54.7557 23.604 54.7557Z" fill="black"/>
<path d="M39.6753 54.7558C39.261 54.7558 38.9248 54.4329 38.9248 54.0349V50.5178C38.9248 50.1198 39.261 49.7969 39.6753 49.7969C40.0896 49.7969 40.4258 50.1198 40.4258 50.5178V54.0349C40.4258 54.4329 40.0896 54.7558 39.6753 54.7558Z" fill="black"/>
</svg>
