<svg width="64" height="64" viewBox="0 0 64 64" fill="none" xmlns="http://www.w3.org/2000/svg">
<rect width="64" height="64" fill="white"/>
<path d="M8 9H16.1682H16.2395H28.7926H29.7748H31.3477H31.6104H32.3726H55V11.8342V12.1951V14.6375V15.0148V15.6803V16.9613V17.9931V18.367V21.0737V21.9508V24.8451V25.5553V26.2127V26.4994V27.4235V27.5974V28.2695V28.6219V29.2428V29.6278V31.4732V31.8367V32.0431V32.4103V36.9734V37.509V39.3199V39.6189V39.9978V40.3448V41.1032V41.4763V42.262V42.7327V44.5135V44.8555V48.6989V49.0697V50.9682V51.3413V51.7641V52.1267V52.623V53.0036V53.8517V54.2171V55.0715H31.4318H31.0765H29.7776H29.4136H8V54.2162V53.8575V53.0042V52.6239V52.1345V51.7716V51.3425V50.9791V49.1175V48.7356V44.8554V44.5155V42.6432V42.2445V41.4692V41.1021V37.3193V36.9373V32.7033V32.098V29.5213V29.2364V28.6823V28.3555V27.6496V27.3825V26.5104V26.3163V25.6804V24.7149V21.6621V21.0529V18.366V18.0122V16.9696V15.5129V15.0061V14.6456V12.181V11.8666V9Z" fill="#FCFCFC"/>
<path d="M29.4322 10.9073C30.6055 10.9005 33.4915 10.6744 34.464 10.8206C34.7127 10.858 34.9529 10.9551 35.1321 11.1605C35.8168 11.9458 35.569 14.6271 35.6065 15.6863C38.2823 15.8603 40.9664 15.6802 43.6429 15.8271C44.1681 16.4606 50.6962 30.3758 50.9053 31.1832C50.9793 31.4686 50.9426 31.6867 50.7622 31.9131C50.2709 32.5294 49.2614 32.3637 48.593 32.3661C48.5635 36.595 48.5745 40.8237 48.6257 45.0524C49.403 45.0404 50.7989 44.7924 51.4763 45.1803C51.7229 45.3213 51.8972 45.5096 51.9695 45.8161C52.0346 46.0916 51.988 46.3723 51.8251 46.5944C51.6915 46.7768 51.5203 46.8835 51.3151 46.9211C49.9601 47.1705 47.3021 46.9428 45.8323 46.9409C41.5203 46.9627 37.2081 46.9543 32.8961 46.9152L18.5813 46.9357C16.2322 46.9439 13.8223 47.0873 11.4822 46.9425C11.2409 46.9275 11.1035 46.9124 10.917 46.7314C10.6896 46.5105 10.6288 46.333 10.5977 46.0091C10.6554 45.783 10.6978 45.6709 10.8529 45.5011C11.5893 44.6954 14.3385 45.0665 15.3879 45.0691L15.391 32.2521C14.7313 32.2645 13.2413 32.4643 12.672 32.0525C12.4433 31.887 12.3499 31.7509 12.3295 31.443C12.2814 30.7204 18.7721 17.1514 19.6392 16.026C19.7951 15.8236 20.0116 15.8001 20.2394 15.778C21.1103 15.6931 22.0309 15.7669 22.9081 15.7674C24.8975 15.7681 26.8915 15.7987 28.8796 15.7117C28.9374 14.555 28.7879 13.3776 28.8861 12.2277C28.939 11.6078 28.9997 11.3173 29.4322 10.9073Z" fill="black"/>
<path d="M31.1986 36.1458C31.4534 36.1421 31.4424 36.0838 31.6401 36.2918C31.7451 37.5148 31.6406 38.7886 31.6087 40.0177L28.9449 40.0255C28.6446 39.989 28.6423 39.9714 28.4231 39.7352C28.3649 39.4559 28.4446 39.2592 28.5411 39.0018C29.068 37.5959 29.9587 36.7074 31.1986 36.1458Z" fill="#FCFCFC"/>
<path d="M32.4927 36.0699C33.1644 36.2458 33.7442 36.5029 34.2918 36.9824C35.1536 37.737 35.6538 38.7597 35.7874 39.9679C34.6777 40.0178 33.5554 39.9851 32.4445 39.9874C32.432 38.6812 32.4483 37.3752 32.4927 36.0699Z" fill="#FCFCFC"/>
<path d="M28.3672 41.1948L31.238 41.196C31.2416 42.4512 31.2359 43.7064 31.2205 44.9616L28.3684 44.9779L28.3672 41.1948Z" fill="#FCFCFC"/>
<path d="M33.0545 41.1435C34.0438 41.1395 35.0331 41.1435 36.0225 41.1555C36.0416 42.3171 36.1828 43.7056 35.9961 44.8402L35.8233 44.9502L32.7514 44.9524C32.7409 43.8596 32.5348 42.2623 32.817 41.2365L33.0545 41.1435Z" fill="#FCFCFC"/>
<path d="M17.1037 32.2367C27.0259 32.0806 36.9718 32.2153 46.8956 32.2484V45.0199C45.6881 45.0208 37.9896 45.2107 37.5356 44.8126C37.4738 41.6263 37.8496 38.7457 35.7075 36.153C35.6505 36.0851 35.5922 36.0188 35.5323 35.9541C35.4724 35.8895 35.4111 35.8265 35.3483 35.7654C35.2857 35.704 35.2216 35.6448 35.1561 35.5872C35.0908 35.5296 35.0242 35.4739 34.9561 35.4201C34.8882 35.3663 34.8191 35.3143 34.7487 35.2645C34.6785 35.2144 34.6071 35.1665 34.5346 35.1206C34.4621 35.0748 34.3885 35.0308 34.3141 34.9892C34.2397 34.9474 34.1642 34.9077 34.0882 34.8703C34.0119 34.8329 33.9347 34.7974 33.857 34.7643C33.7792 34.7311 33.7006 34.7001 33.6213 34.6714C33.5421 34.6428 33.4622 34.6162 33.3817 34.592C33.3012 34.5678 33.2202 34.5457 33.1387 34.5262C33.0573 34.5064 32.9755 34.489 32.8931 34.474C32.8109 34.4589 32.7285 34.4462 32.6457 34.4359C32.5629 34.4256 32.4798 34.4176 32.3966 34.4117C32.3133 34.406 32.2301 34.4028 32.1468 34.4016C32.0627 34.4004 31.9786 34.4013 31.8945 34.4049C31.8105 34.4084 31.7264 34.4145 31.6427 34.4227C31.5588 34.431 31.4751 34.4418 31.3919 34.4547C31.3086 34.4676 31.2256 34.4831 31.143 34.501C31.0603 34.5189 30.9782 34.5391 30.8966 34.5614C30.815 34.584 30.7339 34.6089 30.6532 34.6359C30.5726 34.663 30.4928 34.6923 30.4135 34.7241C30.3345 34.7558 30.2561 34.7897 30.1783 34.8259C30.1007 34.8621 30.024 34.9004 29.9479 34.941C29.8721 34.9815 29.7973 35.024 29.7233 35.0689C29.6493 35.1138 29.5766 35.1606 29.5047 35.2097C29.4328 35.2586 29.3622 35.3096 29.2929 35.3627C29.2236 35.4156 29.1553 35.4706 29.0885 35.5275C29.0216 35.5844 28.9561 35.6432 28.8918 35.7038C28.8275 35.7644 28.7647 35.827 28.7034 35.8911C28.6421 35.9553 28.5822 36.0211 28.5238 36.0888C26.4491 38.497 26.8352 41.9361 26.8594 44.9928C23.6215 45.081 20.3739 45.0142 17.1353 44.9933C16.9648 40.7623 17.0946 36.4722 17.1037 32.2367Z" fill="#FCFCFC"/>
<path d="M20.4817 34.3029C20.8942 34.2825 21.3503 34.2827 21.7507 34.4016C22.3822 34.5894 22.9552 35.0887 23.2541 35.7394C23.2906 35.8195 23.3235 35.9013 23.3527 35.985C23.3818 36.0687 23.4071 36.1538 23.4286 36.2405C23.4501 36.327 23.4676 36.4144 23.4813 36.5031C23.4948 36.5917 23.5043 36.6808 23.51 36.7703C23.5157 36.8599 23.5171 36.9497 23.5146 37.0395C23.5121 37.1293 23.5055 37.2186 23.4948 37.3077C23.4843 37.3968 23.4697 37.4851 23.4512 37.5723C23.4326 37.6598 23.4103 37.746 23.3839 37.8309C23.0916 38.7664 22.4895 39.2274 21.713 39.615C21.1029 39.6841 20.5403 39.6947 19.985 39.3656C19.9051 39.3186 19.8277 39.2671 19.7527 39.2109C19.6779 39.155 19.6058 39.0948 19.5365 39.0302C19.4671 38.9658 19.4012 38.8974 19.3381 38.8252C19.2753 38.753 19.2161 38.6773 19.1603 38.5981C19.1044 38.5189 19.0526 38.4367 19.0045 38.3513C18.9567 38.2662 18.9128 38.1786 18.873 38.0881C18.8332 37.9976 18.7978 37.9052 18.7668 37.8107C18.7358 37.7162 18.7092 37.6201 18.6871 37.5225C18.5191 36.7804 18.5828 35.9765 18.9676 35.3292C19.3493 34.6872 19.8275 34.4531 20.4817 34.3029Z" fill="black"/>
<path d="M20.7163 35.9114C20.8991 35.9158 21.1037 35.9097 21.2827 35.9497C21.5345 36.0061 21.849 36.197 21.9837 36.4586C22.1133 36.7106 22.1516 36.9238 22.0739 37.2063C21.9746 37.5667 21.7478 37.7564 21.4833 37.9599C21.2831 37.9536 21.046 37.9627 20.8519 37.9106C20.6036 37.8438 20.2708 37.5904 20.1427 37.3292C20.0215 37.0824 19.9688 36.861 20.0558 36.5881C20.1701 36.2296 20.4341 36.0783 20.7163 35.9114Z" fill="#FCFCFC"/>
<path d="M42.523 34.1639C43.0113 34.1743 43.471 34.2314 43.9231 34.454C44.0052 34.494 44.0853 34.5386 44.1633 34.5878C44.2415 34.6369 44.317 34.6905 44.3901 34.7485C44.4632 34.8064 44.5334 34.8682 44.6009 34.9342C44.6683 35.0003 44.7324 35.0699 44.7933 35.1432C44.8542 35.2165 44.9117 35.2932 44.9655 35.3731C45.0194 35.453 45.0696 35.5357 45.1158 35.6215C45.1619 35.7073 45.2041 35.7955 45.2422 35.886C45.2804 35.9765 45.3141 36.0689 45.3436 36.1634C45.5699 36.909 45.5257 37.7646 45.1853 38.4585C44.7499 39.3463 44.1271 39.665 43.2857 39.9191C42.676 39.9323 42.1632 39.9057 41.6089 39.5966C41.0213 39.2692 40.5835 38.7201 40.3812 38.0213C40.1652 37.2752 40.2606 36.4351 40.5955 35.7508C41.0299 34.8642 41.6841 34.4519 42.523 34.1639Z" fill="black"/>
<path d="M42.6666 35.8082L42.7599 35.8202C43.1838 35.8799 43.5362 35.9824 43.7853 36.4123C43.9921 36.7691 44.0003 37.1544 43.8717 37.5444C43.7136 38.0237 43.3731 38.222 42.9703 38.3894C42.8474 38.3732 42.7068 38.3619 42.5871 38.3215C42.256 38.2098 41.9953 38.0027 41.8288 37.6619C41.672 37.341 41.6547 36.9692 41.7751 36.6295C41.9468 36.1444 42.2642 35.9923 42.6666 35.8082Z" fill="#FCFCFC"/>
<path d="M20.8222 17.7549C28.1278 17.6416 35.4413 17.7006 42.748 17.6971C43.7597 19.6302 44.6192 21.6966 45.5476 23.6831C46.555 25.839 47.7344 27.9983 48.4845 30.2814L42.196 30.2847L14.6045 30.2513C15.653 27.8678 16.8466 25.5687 17.9733 23.2313C18.7264 21.6693 19.4012 20.062 20.1726 18.5108C20.3522 18.1496 20.4567 17.871 20.8222 17.7549Z" fill="#FCFCFC"/>
</svg>
