<svg width="534" height="468" viewBox="0 0 534 468" fill="none" xmlns="http://www.w3.org/2000/svg">
<path d="M518.748 206.33C516.568 205.13 514.348 204 512.118 202.87C509.058 201.33 506.168 199.86 503.918 198.37C503.018 197.66 501.598 196.51 500.968 195.73C500.448 195.09 499.898 194.48 499.308 193.91C497.108 191.75 494.888 187.86 492.548 183.74L491.788 182.42C491.598 182.08 491.398 181.75 491.178 181.42C490.278 180.02 489.338 178.39 488.348 176.65C487.618 175.37 486.878 174.09 486.118 172.82C485.978 172.58 485.818 172.34 485.668 172.1C484.778 170.73 483.868 169.43 482.988 168.2C483.018 168.02 483.038 167.83 483.068 167.65C485.248 150.57 483.038 132.13 476.698 114.33C476.658 114.21 476.608 114.1 476.568 113.98C472.608 103.44 468.878 95.56 464.488 88.4C464.188 87.9 463.858 87.42 463.518 86.95C462.658 85.77 461.668 84.07 460.628 82.28L460.258 81.64C456.318 74.88 449.088 70.8 441.348 70.8C440.798 70.8 440.248 70.82 439.688 70.86C438.638 70.94 437.608 71.09 436.598 71.32C429.738 60.25 421.498 50.33 412.068 41.77C404.948 34.72 397.088 29.6 389.648 25.12C386.188 23.04 382.278 21.98 378.358 21.98C375.018 21.98 371.678 22.74 368.598 24.28C365.298 25.92 362.518 28.34 360.468 31.26C354.898 26.36 349.008 21.85 342.828 17.77C338.078 14.46 333.298 12.01 329.068 9.83C329.068 9.83 328.298 9.44 328.038 9.32L326.268 8.49C322.008 6.48 317.188 4.2 311.688 2.57L311.068 2.35C308.818 1.53 304.628 0 299.248 0C299.058 0 298.688 0 298.498 0C289.948 0.23 282.478 5.38 279.098 12.95C275.108 11.19 271.098 9.58 267.088 8.15C266.928 8.09 266.768 8.04 266.608 7.98C252.208 3.23 237.828 0.59 223.868 0.16C223.638 0.16 223.408 0.15 223.178 0.15C213.938 0.15 205.658 5.97 202.548 14.72C201.888 16.58 201.498 18.48 201.348 20.38C201.258 20.38 200.798 20.38 200.648 20.38C200.198 20.38 199.238 20.3 198.398 20.23C196.778 20.09 194.778 19.93 192.498 19.93C191.828 19.93 191.168 19.94 190.498 19.98C189.318 19.96 188.148 19.95 186.968 19.95C180.378 19.95 174.818 20.29 169.528 21.01C166.758 21.28 163.198 21.79 159.338 23.14C149.738 26.49 143.718 36.02 144.798 46.13C144.908 47.19 145.098 48.23 145.358 49.24C142.628 49.85 138.268 51.18 134.028 54.74C129.568 58.48 126.888 63.74 126.328 69.3C122.858 69.9 119.198 70.68 115.248 71.66C114.918 71.74 114.598 71.83 114.278 71.92C113.578 72.13 112.878 72.32 112.168 72.52C108.618 73.5 103.768 74.84 98.808 77.61C90.518 82.23 86.158 91.67 87.998 100.98C88.078 101.4 88.178 101.82 88.288 102.23C86.628 102.82 84.978 103.44 83.338 104.1C83.208 104.15 83.078 104.2 82.948 104.26C76.618 106.95 69.298 110.26 62.548 115.63C54.568 121.98 52.018 132.99 56.418 142.2C56.578 142.53 56.748 142.86 56.918 143.19C53.348 145.24 49.728 147.53 45.938 150.13L45.178 150.65C42.518 152.48 38.488 155.23 34.938 159.68C28.858 167.28 28.548 177.94 34.068 185.86C33.048 186.62 32.038 187.39 31.048 188.18C25.408 192.68 18.928 198.07 13.388 205.04C7.048 213.01 7.038 224.3 13.368 232.28C14.058 233.15 14.798 233.95 15.588 234.69C13.938 236.44 12.438 238.15 11.048 239.73L9.228 241.79C2.398 249.43 1.788 260.78 7.748 269.11C8.988 270.84 10.438 272.34 12.038 273.6C11.938 274.05 11.858 274.51 11.788 274.98C10.438 281.79 12.428 288.66 16.838 293.67C16.738 293.75 16.638 293.83 16.538 293.91C16.488 293.95 16.388 294.04 16.348 294.08C12.948 296.99 9.088 300.3 5.428 304.47C-0.841997 311.62 -1.772 322 3.118 330.15C4.528 332.5 6.338 334.49 8.408 336.1C5.798 344.16 8.038 353.19 14.518 359.06C19.738 363.79 25.398 367.15 30.668 370.03C35.408 372.65 40.418 374.85 45.648 376.63C45.248 378.32 45.038 380.08 45.048 381.88C45.138 391.6 51.638 400.04 60.908 402.69C60.688 404.08 60.578 405.49 60.638 406.94C60.998 416.62 67.678 424.92 77.058 427.33C88.178 430.19 98.978 431.64 109.158 431.64C109.458 431.64 109.758 431.63 110.058 431.62C110.158 434.31 110.698 437 111.818 439.55C115.298 447.53 123.178 452.69 131.878 452.69H131.918C141.168 452.67 149.628 451.9 157.448 450.35C160.888 457 167.548 461.51 175.168 462.11C181.598 462.62 187.968 462.62 193.088 462.62C193.708 462.62 194.338 462.59 194.958 462.54C204.648 461.71 213.658 459.77 221.728 456.79C223.328 456.2 224.948 455.59 226.578 454.94C228.268 455.24 230.208 455.46 232.328 455.46C232.378 455.46 234.348 455.48 235.258 455.5C236.638 455.53 238.018 455.55 239.408 455.55C242.278 455.55 246.088 455.46 250.318 454.81C260.218 453.55 270.238 450.52 280.718 445.59C285.758 451.08 291.488 455.54 297.778 458.81C308.428 464.73 320.908 467.74 334.868 467.74C338.828 467.74 342.948 467.49 347.098 467C347.298 466.98 347.508 466.95 347.708 466.92C352.128 466.28 363.748 464.58 371.008 453.89C371.328 453.43 371.618 452.98 371.898 452.52C377.138 453.66 382.818 454.22 389.218 454.22C391.308 454.22 393.398 454.16 395.478 454.07C396.158 454.04 396.838 453.98 397.518 453.89C397.948 453.83 398.378 453.79 398.818 453.74C402.768 453.31 410.108 452.51 417.068 447.51C417.178 447.43 417.288 447.35 417.398 447.27C421.718 444.05 428.788 436.53 427.618 422.37C427.568 421.81 427.508 421.25 427.418 420.7C426.068 412.28 421.868 404.31 415.708 398.11C417.768 396.82 419.638 395.18 421.218 393.2C428.468 384.12 432.888 374.18 436.188 365.56C439.598 364.75 442.838 363.11 445.578 360.7C450.378 356.48 452.168 351.59 452.908 349.42C455.238 343.57 456.898 337.54 457.848 331.46C463.608 328.71 467.908 323.56 469.568 317.35C470.768 312.84 471.918 307.8 472.368 302.35C476.078 301.19 479.788 299.83 483.478 298.28C494.948 293.62 504.138 287.82 511.538 280.56C514.538 277.8 516.788 275 518.618 272.73L519.748 271.33C520.188 270.8 520.608 270.24 520.998 269.66C529.508 257.06 533.638 244.23 533.278 231.63C532.908 215.88 523.578 208.89 518.778 206.32L518.748 206.33ZM461.668 234.92C461.698 234.85 461.738 234.78 461.768 234.71C461.768 234.8 461.758 234.89 461.758 234.98C461.728 234.96 461.698 234.94 461.678 234.92H461.668Z" fill="white"/>
<path d="M305.358 23.5201C303.298 22.9101 301.308 21.8301 299.108 21.8901C302.538 23.5801 305.468 26.0801 308.528 28.3401C317.048 34.8501 324.438 42.7201 330.868 51.2801C335.578 57.9301 340.208 64.6901 343.698 72.0701C350.628 85.9001 354.638 101.1 356.058 116.47C356.618 124.27 356.768 132.12 356.428 139.94C350.608 119.55 341.868 99.8901 329.598 82.5401C325.098 76.4101 320.658 70.1801 315.278 64.7701C306.918 55.6001 297.068 47.8301 286.538 41.2901C278.008 36.3401 269.048 32.1001 259.748 28.7801C247.948 24.8801 235.628 22.4401 223.188 22.0501C224.078 22.7301 225.198 22.9401 226.228 23.2901C244.418 29.7301 261.648 39.1501 276.418 51.6201C284.148 58.0301 291.288 65.1301 297.758 72.8001C308.218 85.7001 317.188 99.8701 323.878 115.09C328.138 123.94 330.948 133.38 333.368 142.86C333.938 146.06 334.748 149.23 334.958 152.48C332.598 148.47 330.608 144.25 328.178 140.28C320.248 127.03 312.198 113.77 302.428 101.78C295.328 92.3501 286.918 84.0001 278.138 76.1301C265.668 65.6501 251.618 56.8901 236.338 51.1501C225.128 46.4301 213.128 43.9101 201.128 42.2901C197.718 42.3601 194.358 41.6401 190.948 41.9001C184.638 41.7801 178.328 41.8901 172.068 42.7801C170.208 42.9501 168.338 43.2001 166.558 43.8201C181.388 45.6601 195.948 49.5201 209.808 55.0801C218.148 58.1401 226.228 61.8701 234.028 66.1101C242.138 70.7701 249.888 76.0501 257.318 81.7301C273.088 94.3001 286.718 109.41 298.168 125.99C304.188 134.02 309.288 142.66 314.498 151.22C317.048 155.09 319.278 159.16 322.238 162.74C316.248 157.77 310.178 152.92 304.628 147.45C294.848 138.13 285.688 128.17 276.118 118.64C262.648 104.66 247.468 92.1001 230.258 82.9401C222.118 78.6701 213.488 75.3401 204.618 72.9701C196.828 71.1001 189.028 68.9201 180.978 68.6201C174.588 68.5901 168.158 68.2401 161.788 68.8101C158.658 69.3601 155.438 69.3201 152.338 70.1501C150.928 70.5701 149.268 70.5301 148.088 71.5201C161.368 72.1501 174.458 74.9201 187.218 78.5701C201.438 83.0801 215.238 89.0501 227.998 96.7901C235.098 101.1 242.078 105.71 248.218 111.35C254.128 116.61 259.428 122.52 264.438 128.63C265.688 130.5 267.318 132.05 268.728 133.77C258.088 128.14 247.898 121.71 237.408 115.8C223.288 108.14 208.768 101.05 193.448 96.1401C187.648 94.2401 181.658 93.0001 175.688 91.7401C169.808 90.5401 163.838 89.3701 157.798 89.6201C151.658 89.4501 145.508 89.5201 139.378 89.7801C132.998 90.1501 126.708 91.3801 120.518 92.9201C116.788 94.0301 112.888 94.8301 109.458 96.7501C112.078 97.0601 114.688 96.3601 117.308 96.6201C127.168 96.5001 137.058 97.0401 146.798 98.6001C158.678 100.46 170.168 104.09 181.558 107.84C196.168 113.1 210.368 119.52 223.838 127.24C235.418 133.82 246.718 140.87 258.248 147.52C274.148 156.43 290.078 165.36 306.718 172.83C314.968 176.69 323.478 179.95 331.848 183.53C327.668 184.12 323.488 183.27 319.318 183.01C308.708 182.2 298.308 179.63 288.258 176.18C278.648 172.37 269.318 167.69 260.878 161.69C248.168 153.02 236.698 142.6 223.478 134.69C224.308 136.34 225.958 137.29 227.148 138.64C232.628 144.31 237.968 150.13 243.168 156.06C238.378 152.53 233.248 149.49 227.968 146.75C221.708 143.1 215.498 139.3 208.848 136.37C191.158 127.62 172.308 120.98 152.788 117.86C147.498 116.86 142.118 116.89 136.768 116.67C132.008 116.46 127.268 117.04 122.498 116.9C121.558 117.42 120.498 117.43 119.438 117.48C109.858 118.49 100.418 120.84 91.4778 124.44C86.1278 126.71 80.7178 129.16 76.1478 132.8C95.2978 128.53 115.208 128.41 134.638 130.58C158.478 133.74 181.568 141.32 203.248 151.6C215.138 157.09 226.798 163.11 237.988 169.91C238.948 170.47 239.908 171 240.888 171.51C231.968 169.6 222.928 168.22 214.078 165.97C202.728 163.45 191.658 159.82 180.448 156.75C166.498 152.7 152.288 149.38 137.838 147.78C133.118 147.15 128.348 147.51 123.608 147.41C111.818 147.73 100.078 149.73 88.7778 153.14C83.0178 155.13 77.2778 157.29 71.8178 160.01C67.1678 162.42 62.7178 165.17 58.3978 168.14C56.1378 169.71 53.7478 171.21 51.9978 173.39C66.5778 167.33 82.2978 164.47 97.9378 162.92C100.438 162.64 102.968 163.07 105.438 162.6C110.988 162.18 116.538 162.7 122.068 162.94C126.578 163.49 131.138 163.54 135.638 164.18C147.248 165.97 158.808 168.41 169.908 172.29C185.028 177.31 199.518 184.12 213.238 192.16C210.628 191.99 208.128 191.11 205.548 190.71C199.748 189.7 193.998 188.48 188.248 187.22C175.238 184.73 162.238 182.16 149.098 180.54C143.588 179.98 138.088 178.98 132.528 179.2C122.658 178.58 112.798 179.58 103.028 180.92C82.0278 184.22 61.4278 192.02 44.6778 205.32C39.5978 209.38 34.5478 213.6 30.4778 218.71C44.0078 212.29 58.1278 207.09 72.6078 203.24C79.0178 201.53 85.5678 200.5 92.0978 199.4C99.0278 198.16 106.038 197.32 113.058 196.92C116.768 197.08 120.438 196.38 124.148 196.59C135.578 196.98 147.018 197.83 158.318 199.67C177.678 202.59 196.898 206.33 216.248 209.27C225.088 210.8 234.038 211.47 242.928 212.56C250.178 213.2 257.398 214.17 264.678 214.54C253.108 217.48 241.248 219.45 229.308 219.97C222.258 220.04 215.178 220.64 208.148 219.78C200.478 219.24 192.788 218.67 185.198 217.44C172.188 215.82 159.228 213.77 146.168 212.54C140.058 212.08 133.958 211.36 127.828 211.57C121.248 211.9 114.648 211.87 108.098 212.72C102.188 213.72 96.2778 214.72 90.4278 216.03C78.6578 219.05 67.0978 223.23 56.5978 229.4C48.3878 234.42 40.6278 240.24 33.9778 247.22C30.9578 250.1 28.2878 253.31 25.5078 256.41C30.1178 254.46 34.4378 251.83 38.9678 249.69C58.1778 240.37 78.8178 233.99 99.9678 230.98C106.228 230.08 112.538 229.29 118.868 229.19C121.808 228.55 124.808 228.94 127.778 228.84C154.598 229.08 181.118 233.72 207.778 236.27C201.978 237.76 196.048 238.67 190.108 239.4C186.878 239.96 183.578 239.81 180.348 240.45C172.108 240.7 163.878 241.27 155.628 241.29C151.808 241.92 147.938 241.25 144.108 241.79C141.538 242.12 138.818 241.29 136.348 242.29C134.008 242.34 131.678 242.24 129.338 242.29C119.188 243.49 108.908 244.15 98.8578 246.2C79.1278 250.01 59.7478 257.29 43.5978 269.45C39.8878 272 36.4578 274.95 33.3878 278.24C33.3378 278.58 33.2778 278.92 33.2078 279.27C34.9178 277.58 37.2278 276.73 39.3978 275.8C44.0178 273.95 48.5578 271.88 53.2878 270.32C74.7378 263.12 97.2778 259.06 119.908 258.82C123.908 258.55 127.908 258.79 131.908 258.61C137.728 258.61 143.588 259.58 149.378 258.61C144.188 261.08 138.588 262.51 133.028 263.92C129.658 264.79 126.298 265.76 122.888 266.47C111.128 269.43 99.1778 271.5 87.3078 273.96C84.2778 274.63 81.0278 274.61 78.1578 275.92C85.3878 276.33 92.6478 276.38 99.8878 275.87C123.298 275.22 146.568 271.64 169.388 266.43C180.738 263.59 191.948 260.19 203.018 256.4C214.138 252.32 225.118 247.89 235.948 243.09C248.638 237.45 261.018 231.14 273.788 225.67C288.398 219.46 303.898 214.84 319.828 214.1C322.398 213.76 324.998 213.86 327.578 213.65C320.768 215.79 314.418 219.09 307.928 222.02C300.128 225.51 292.748 229.83 285.328 234.06C278.618 238.13 272.008 242.43 266.028 247.51C270.898 245.74 275.778 243.94 280.508 241.84C287.598 238.95 294.808 236.4 302.118 234.12C311.698 231.26 321.388 228.58 331.348 227.42C337.678 226.39 344.108 226.29 350.458 225.41C320.898 235.44 293.458 250.76 267.278 267.58C253.668 276.52 240.108 285.69 228.208 296.87C226.388 298.85 224.178 300.48 222.618 302.72C233.268 297.1 243.428 290.61 254.018 284.88C263.648 279.57 273.388 274.43 283.398 269.87C293.288 265.68 303.208 261.4 313.618 258.66C318.598 257.19 323.648 256.05 328.618 254.57C315.608 260.9 303.178 268.33 290.818 275.84C279.948 282.96 268.868 289.82 258.738 298C251.098 303.76 244.138 310.36 237.688 317.41C235.548 320.19 232.928 322.63 231.268 325.77C241.388 318.21 251.498 310.64 262.028 303.65C254.108 311.85 247.288 321.03 240.218 329.95C233.518 338.94 226.538 347.72 219.738 356.64C213.198 364.51 207.068 372.74 200.028 380.19C194.518 386.58 188.528 392.54 182.358 398.29C174.658 405.44 166.158 411.67 157.388 417.44C150.348 421.86 143.088 426.01 135.328 429.06C134.148 429.63 132.718 429.84 131.788 430.84C143.808 430.82 156.028 429.37 167.198 424.68C176.648 421.18 185.258 415.78 193.088 409.49C200.428 403.76 206.958 397.07 213.118 390.12C226.478 375.37 237.668 358.85 249.528 342.92C256.428 333.62 263.908 324.77 271.778 316.29C284.628 302.33 299.248 289.88 315.548 280.12C324.118 275.32 333.088 271.28 342.298 267.86C345.268 266.83 348.058 265.34 351.008 264.27C343.338 269.27 335.468 274.03 328.198 279.65C322.788 283.62 317.538 287.82 312.348 292.08C302.648 300.79 293.178 309.79 284.668 319.69C277.828 327.76 271.168 336 264.878 344.51C252.168 361.96 241.498 380.82 228.268 397.9C222.268 405.51 215.768 412.76 208.608 419.3C200.598 426.41 191.798 432.65 182.338 437.68C180.568 438.72 178.368 438.98 176.808 440.35C182.198 440.78 187.608 440.79 193.008 440.79C200.168 440.17 207.298 438.81 214.058 436.31C220.008 434.11 226.018 431.77 231.218 428.05C229.648 429.7 227.638 430.84 225.958 432.37C228.098 432.87 230.218 433.66 232.438 433.62C237.358 433.65 242.308 433.98 247.178 433.18C258.628 431.78 269.438 427.26 279.418 421.64C282.068 419.9 284.898 418.45 287.368 416.46C291.788 425.94 298.588 434.74 308.078 439.56C319.048 445.77 332.198 446.74 344.488 445.3C347.518 444.86 351.088 444.31 352.898 441.53C353.928 440.13 353.628 438.34 353.488 436.73C351.668 430.58 346.948 425.37 341.068 422.82C338.998 422.05 336.888 420.94 334.608 421.31C333.328 413.25 336.538 404.54 343.098 399.6C344.608 406.31 347.928 412.61 352.478 417.75C358.258 424.72 366.708 429.09 375.488 430.93C381.688 432.44 388.118 432.51 394.458 432.23C397.768 431.77 401.408 431.78 404.238 429.75C405.938 428.48 405.888 426.09 405.728 424.19C404.808 418.48 401.018 413.39 396.118 410.4C393.038 408.73 389.568 407.7 386.068 407.56C385.368 400.18 384.748 392.49 387.078 385.32C389.838 376.73 394.538 368.94 397.518 360.43C400.588 352.28 403.018 343.88 404.468 335.29C405.278 339.11 405.998 342.95 406.548 346.81C406.978 355.58 406.788 364.44 405.068 373.08C404.728 375.24 404.138 377.36 404.038 379.55C409.498 372.71 413.088 364.6 416.158 356.46C418.618 350 419.668 343.13 420.588 336.31C421.218 327.72 420.828 319 418.728 310.62C421.708 313.94 424.708 317.35 426.488 321.49C429.678 328.6 431.458 336.45 431.038 344.26C431.888 343.51 432.048 342.34 432.488 341.35C437.638 328.46 438.408 313.7 433.878 300.51C433.158 298.45 432.278 296.46 431.568 294.4C433.998 293.57 435.998 291.8 438.448 291.05C441.278 294.41 443.678 298.17 445.268 302.28C446.228 304.82 447.618 307.28 447.738 310.04C447.788 310.64 447.738 311.34 448.348 311.69C449.908 305.86 451.168 299.79 450.328 293.74C450.258 290.79 449.528 287.94 449.158 285.03C458.068 284 466.798 281.51 475.068 278.04C482.888 274.88 490.408 270.65 496.408 264.67C498.818 262.51 500.738 259.89 502.788 257.41C507.808 249.98 511.588 241.27 511.328 232.15C511.268 229.73 510.748 226.78 508.328 225.6C502.568 222.4 496.438 219.85 490.998 216.09C488.458 214.12 485.968 212.04 483.928 209.53C479.188 204.88 476.008 198.98 472.748 193.27C470.818 190.27 469.138 187.12 467.308 184.06C464.818 180.25 461.938 176.71 459.438 172.91C460.558 170.36 460.818 167.57 461.318 164.88C463.178 150.33 460.948 135.44 456.048 121.68C453.218 114.15 450.028 106.72 445.808 99.8601C444.138 97.5701 442.738 95.1101 441.308 92.6601C441.148 93.0701 440.958 93.4901 441.228 93.9201C442.278 97.0501 442.908 100.28 443.548 103.51L444.488 103.57C444.238 103.57 443.738 103.56 443.488 103.55C446.198 116.07 448.248 128.89 447.278 141.74C446.898 150.61 444.928 159.31 442.068 167.69C440.968 158.94 440.318 150.12 438.898 141.41C436.178 121.8 429.828 102.61 419.628 85.6001C413.558 75.2001 405.928 65.6901 396.968 57.6401C391.488 52.1201 384.958 47.8501 378.328 43.8601C378.308 44.0201 378.288 44.3301 378.278 44.4901C384.638 50.6101 389.938 57.7401 394.978 64.9501C401.488 74.4201 407.078 84.5701 410.978 95.3901C416.748 109.7 419.868 125.19 419.228 140.64C419.298 148.27 417.828 155.8 416.518 163.29C416.458 161 416.408 158.71 416.038 156.45C414.918 145.84 413.378 135.2 410.078 125.03C407.848 117.77 405.288 110.58 402.008 103.72C400.198 98.9001 397.588 94.4701 395.158 89.9501C394.798 89.2201 394.298 88.5801 393.738 87.9801C396.078 96.1601 397.938 104.47 399.298 112.87C401.328 124.51 401.088 136.47 399.348 148.13C398.648 154.08 397.118 159.93 395.218 165.6C395.718 154.06 393.768 142.59 392.058 131.22C389.298 115.02 384.388 99.0401 376.198 84.7301C372.418 78.4801 368.658 72.1601 363.848 66.6301C354.468 54.6901 343.188 44.2201 330.488 35.8701C326.788 33.2701 322.748 31.2101 318.728 29.1401C314.328 27.0901 309.968 24.8901 305.298 23.5101L305.358 23.5201ZM365.418 87.6201C367.798 93.0801 370.468 98.4401 372.148 104.18C376.888 117.89 379.438 132.54 378.168 147.06C377.158 154.13 375.798 161.27 372.728 167.77C371.698 169.67 370.728 171.6 369.728 173.53C372.788 159.66 372.148 145.37 372.268 131.26C371.788 124.29 370.938 117.34 369.948 110.42C367.978 101.83 366.698 93.0401 363.738 84.7101C364.398 85.6201 364.968 86.5901 365.418 87.6201ZM417.018 174.33C426.648 178.46 435.448 184.4 443.148 191.48C444.888 192.93 446.678 194.35 447.988 196.22C448.228 196.27 448.688 196.38 448.918 196.44C447.948 194.35 447.548 192.07 446.828 189.89C444.978 184.07 441.468 178.91 437.248 174.54C438.678 174.96 439.808 175.97 441.018 176.77C444.938 179.43 448.888 182.1 452.338 185.36C459.508 191.6 465.088 199.33 470.658 206.96C476.318 214.5 483.648 220.8 492.048 225.12C490.128 226.37 487.608 226.75 486.128 228.67C484.168 231.18 483.008 234.66 484.058 237.79C485.298 241.57 488.478 244.32 491.788 246.3C493.838 247.73 496.248 248.78 498.798 248.67C494.448 256.67 486.808 262.86 478.068 265.39C474.008 266.47 469.658 266.64 465.548 265.88C463.568 265.58 461.678 264.87 459.788 264.22C456.398 262.81 453.078 260.76 451.148 257.54C449.578 255.82 449.758 252.87 447.548 251.71C445.378 250.17 442.008 252.15 442.108 254.75C442.468 260 445.438 264.88 449.638 267.98C452.268 269.93 454.948 272.08 458.198 272.84C457.098 273.06 456.008 273.37 454.928 273.68C453.248 274.29 451.458 274.53 449.698 274.75C446.088 275.44 442.368 275.43 438.698 275.39C435.038 275.03 431.318 275.58 427.708 274.77C425.618 274.5 423.498 274.28 421.448 273.77C417.808 273.03 414.238 271.95 410.738 270.7C405.578 268.72 400.648 266.18 395.958 263.25C392.738 261.34 389.728 259.06 387.098 256.39C391.998 253.26 396.178 248.98 401.568 246.66C402.448 246.26 403.368 245.89 404.088 245.23C402.498 245.35 400.898 245.5 399.288 245.41C394.308 245.2 389.388 246.14 384.548 247.23C378.358 248.85 371.978 250.82 367.138 255.2C369.878 249.07 374.218 243.82 379.098 239.29C384.918 233.62 392.348 229.92 399.868 227.06C395.598 225.89 390.988 225.91 386.568 226.26C380.658 226.59 374.868 228.37 369.698 231.24C374.148 226.26 379.958 222.59 386.138 220.13C391.878 218.12 397.838 216.37 403.968 216.44C402.528 215.2 400.958 214.14 399.448 212.98C392.728 207.98 384.868 204.81 376.928 202.34C388.958 199.58 401.788 200.47 413.408 204.57C411.398 201.8 409.108 199.2 406.598 196.88C400.928 191.27 393.718 187.61 386.528 184.35C389.378 184.08 392.248 184.15 395.088 184.42C404.318 185.56 413.418 188.09 421.738 192.3C423.328 193.1 424.918 193.93 426.588 194.53C423.828 186.04 417.878 179.03 411.108 173.4C409.928 172.51 408.628 171.75 407.608 170.68C410.808 171.69 413.868 173.1 416.998 174.32L417.018 174.33ZM244.698 180.51C253.958 182.13 263.188 183.94 272.468 185.49C282.898 187.2 293.278 189.28 303.718 190.94C293.778 193.03 283.568 193.59 273.448 193.07C261.298 191.7 249.148 188.93 238.128 183.48C233.438 181.49 229.188 178.62 224.518 176.58C231.158 178.29 237.958 179.25 244.698 180.51ZM371.128 180.93C372.948 182.82 374.448 184.99 375.828 187.21C373.118 185.34 370.008 183.75 366.618 183.87C361.388 183.74 356.278 187.58 355.298 192.79C354.518 195.41 355.358 198.07 355.938 200.63C357.838 206.36 361.908 211.1 366.618 214.77C364.328 213.64 361.788 213.1 359.528 211.88C353.958 209.03 348.868 204.77 345.948 199.16C344.098 194.63 343.818 189.04 346.548 184.79C349.348 179.99 354.848 177.04 360.368 176.93C364.268 176.99 368.198 178.34 371.138 180.94L371.128 180.93ZM504.618 231.22C501.218 231.16 497.688 230.65 494.398 231.7C492.178 232.28 491.288 234.62 490.538 236.54C487.978 234.83 489.478 231.17 491.508 229.67C494.088 228.06 497.328 227.8 500.288 228.17C502.138 228.42 503.638 229.66 504.608 231.21L504.618 231.22ZM366.738 277.44C360.918 283.2 354.638 288.49 348.658 294.09C343.338 299.31 338.128 304.64 332.908 309.96C315.898 328.28 299.848 347.68 287.118 369.27C284.338 373.63 281.728 378.1 279.338 382.69C274.488 391.49 269.578 400.27 264.778 409.1C262.048 413.81 259.068 418.37 256.238 423.01C257.868 412.27 259.918 401.58 262.778 391.09C268.738 368.68 278.598 347.31 291.788 328.24C295.468 322.88 299.718 317.95 303.878 312.96C308.688 307.43 313.928 302.26 319.708 297.76C322.328 295.77 324.608 293.36 327.318 291.5C318.918 302.01 311.038 313.07 305.118 325.19C310.928 320.02 316.438 314.52 322.078 309.17C329.658 302.46 337.288 295.72 345.758 290.14C352.488 285.48 360.038 282.15 366.738 277.45V277.44ZM364.198 306.72C361.638 310.92 358.918 315.02 356.368 319.22C352.818 325.24 348.668 330.87 345.138 336.91C341.308 343.16 337.078 349.17 333.088 355.32C329.018 361.03 325.278 367.02 320.488 372.19C316.428 377.17 311.558 381.38 306.558 385.37C310.778 379.5 313.488 372.75 316.668 366.31C321.748 355.36 328.888 345.51 336.528 336.23C340.808 331.06 345.178 325.94 349.778 321.05C354.598 316.29 359.378 311.48 364.198 306.72ZM379.068 313.59C378.278 315.62 378.008 317.79 377.538 319.91C375.488 329.56 373.118 339.17 369.558 348.38C365.048 360.21 358.918 371.62 350.178 380.89C347.258 383.53 344.258 386.08 341.328 388.72C343.448 385.69 345.398 382.51 346.858 379.11C350.608 370.94 354.078 362.62 358.438 354.75C362.528 347.2 366.758 339.71 370.628 332.05C373.398 325.87 376.778 319.91 378.518 313.33C378.748 312.56 379.378 312.88 379.068 313.59Z" fill="#462400"/>
<path d="M434.349 211.74C429.229 210.2 423.389 213.44 421.729 218.48C420.099 222.32 421.769 226.66 424.389 229.61C427.059 232.37 431.339 233.67 434.989 232.24C440.449 230.65 443.829 224.25 442.119 218.84C440.879 215.38 437.899 212.67 434.339 211.74H434.349ZM433.789 218.46C433.539 220.03 432.229 221.08 430.809 221.61C429.879 221.24 428.819 220.92 428.249 220.01C426.959 218.36 428.329 215.8 430.229 215.42C432.029 214.98 433.789 216.69 433.789 218.46Z" fill="#462400"/>
<path d="M258.629 252.37C251.369 254.57 244.109 256.77 236.979 259.36C214.589 266.91 192.159 274.73 168.879 279.12C155.849 281.93 142.659 283.95 129.459 285.79C117.009 287.07 104.549 288.28 92.1487 289.96C80.8887 291.18 69.6087 292.78 58.7587 296.15C48.6987 299.42 38.8087 303.8 30.6487 310.67C27.6087 313.27 24.5387 315.9 21.8887 318.92C32.9587 316.34 44.0487 313.77 55.2987 312.07C67.3487 310.01 79.4687 308.34 91.5987 306.78C103.809 305.06 116.129 304.21 128.349 302.52C134.689 301.63 141.129 301.28 147.369 299.75C143.079 302.66 138.699 305.46 134.039 307.75C124.589 313.07 114.699 317.61 104.499 321.3C94.0987 325.43 83.0687 327.62 72.2587 330.3C84.0387 331.01 95.8687 329.46 107.359 326.88C130.909 321.93 152.939 311.83 174.459 301.37C182.489 297.36 190.539 293.38 198.389 289.01C206.759 284.46 215.159 279.94 223.319 275.02C235.269 267.78 247.349 260.66 258.609 252.37H258.629Z" fill="#462400"/>
<path d="M204.999 298.35C195.119 303.9 184.659 308.31 174.589 313.5C154.959 323.08 135.029 332.16 114.249 338.95C103.069 342.77 91.4685 345.27 79.7485 346.7C75.9985 347.2 72.2285 347.67 68.4385 347.54C65.7885 347.37 63.1985 348.17 60.5385 347.83C49.9185 348.01 39.3285 346.02 29.2285 342.85C32.8085 346.09 37.0385 348.57 41.2585 350.89C48.5485 354.92 56.5585 357.59 64.7585 358.99C72.1985 360.56 79.8185 360.58 87.3885 360.49C94.5185 360.09 101.619 359 108.439 356.85C119.119 353.96 129.259 349.4 139.099 344.41C147.669 340.06 155.969 335.19 163.969 329.87C168.179 327.04 172.529 324.4 176.609 321.38C184.779 315.04 193.289 309.09 200.849 302.01C202.249 300.82 203.739 299.71 205.009 298.36L204.999 298.35Z" fill="#462400"/>
<path d="M208.619 315.13C206.629 316.4 204.799 317.9 202.769 319.13C193.079 324.72 183.959 331.22 174.529 337.23C165.919 342.85 157.179 348.29 148.309 353.49C130.539 364.03 111.819 373.57 91.5795 378.3C85.4195 379.72 79.0994 380.24 72.8494 381.07C70.8794 381.22 68.8695 381.19 66.9395 381.69C71.4195 382.75 75.9795 383.59 80.5795 383.83C83.1695 384.42 85.8295 384.16 88.4495 384.15C105.419 384.48 121.909 378.82 136.819 371.11C144.509 367.3 151.889 362.86 158.949 357.97C173.009 348.45 186.229 337.7 198.489 325.95C201.489 323.14 204.089 319.94 207.059 317.11C207.669 316.51 208.189 315.84 208.609 315.12L208.619 315.13Z" fill="#462400"/>
<path d="M220.548 326.28C210.838 335.45 200.228 343.57 189.958 352.09C185.248 355.76 180.888 359.87 175.958 363.25C168.018 369.29 159.808 374.96 151.438 380.38C132.388 391.88 111.788 401.73 89.5978 405.02C87.2378 405.43 84.7978 405.38 82.5078 406.15C93.4978 408.98 104.968 410.45 116.308 409.47C124.488 409.3 132.418 407.01 140.038 404.23C157.708 397.57 173.298 386.24 186.438 372.81C199.918 359.03 211.548 343.35 220.548 326.29V326.28Z" fill="#462400"/>
</svg>
